<svg width="40" height="40" viewBox="0 0 40 40" fill="none" xmlns="http://www.w3.org/2000/svg">
<g clip-path="url(#clip0_110_431)">
<path fill-rule="evenodd" clip-rule="evenodd" d="M20 40C31.0458 40 40 31.0458 40 20C40 8.95422 31.0458 0 20 0C8.95422 0 0 8.95422 0 20C0 31.0458 8.95422 40 20 40Z" fill="#4086CD"/>
<path d="M20 20.889C22.5773 20.889 24.6667 18.7997 24.6667 16.2223C24.6667 13.645 22.5773 11.5557 20 11.5557C17.4227 11.5557 15.3333 13.645 15.3333 16.2223C15.3333 18.7997 17.4227 20.889 20 20.889Z" fill="#E5B731"/>
<path fill-rule="evenodd" clip-rule="evenodd" d="M19.7778 24.3974L19.6971 24.5596L19.6078 24.7674L19.554 24.8665L19.5093 24.9569L19.4736 25.0289L19.4287 25.074L19.3213 24.9838L19.2051 24.9027L19.0798 24.8396L18.9456 24.7854L18.8024 24.7494L18.6591 24.7132L18.516 24.686L18.3638 24.668L18.0507 24.6409L17.7373 24.632L17.4333 24.6138L17.1467 24.5778L16.9858 24.5507L16.8338 24.5147L16.7531 24.4876L16.6727 24.4605L16.6011 24.4245L16.5384 24.3883L16.44 24.3252L16.3416 24.2529L16.2342 24.1718L16.1358 24.0814L15.9298 23.8829L15.724 23.6845L15.5182 23.4949L15.3302 23.3234L15.2409 23.2603L15.1513 23.1972L15.0709 23.1609L14.9902 23.134L14.8382 23.0978L14.704 23.0527L14.5698 23.0076L14.4356 22.9445L14.3191 22.8903L14.2029 22.818L14.0953 22.7458L13.9969 22.6736L13.8896 22.5925L13.8002 22.5112L13.7107 22.4209L13.6211 22.3307L13.4511 22.1414L13.29 21.9427L12.9678 21.5185L12.6278 21.0854L12.4309 20.8778L12.2251 20.6703L12.1089 20.562L11.9924 20.4627L11.8673 20.3725L11.7331 20.2732L11.7062 20.2823L11.6793 20.3094L11.6527 20.3454L11.6347 20.3905L11.6078 20.4718L11.5989 20.5078L11.5362 20.4807L11.4824 20.4538L11.4198 20.4267L11.366 20.4087H11.2498L11.1871 20.4265L11.1244 20.4538L11.1871 20.5349L11.2678 20.6432L11.3482 20.7696L11.4198 20.9052L11.4913 21.0494L11.5451 21.1847L11.5629 21.2569L11.5807 21.3109L11.5898 21.3743V21.4283H11.1067L11.1782 21.5367L11.2587 21.6449L11.3482 21.7532L11.4467 21.8525L11.5451 21.9518L11.6436 22.0509L11.742 22.1323L11.8313 22.1954L11.7331 22.2043L11.5989 22.2134L11.4644 22.2316L11.3662 22.2405L11.4467 22.3127L11.5451 22.3849L11.6524 22.466L11.7689 22.5474L11.8851 22.6196L12.0016 22.6827L12.1089 22.7187L12.2073 22.7458L12.252 22.7547L12.2878 22.764L12.3147 22.7729L12.3324 22.7909L12.3413 22.8V22.836L12.3324 22.8543L12.3147 22.9083L12.3058 22.9625L12.2969 22.9985V23.0256L12.3058 23.0707L12.3147 23.1069L12.3324 23.1247L12.3593 23.1429L12.3951 23.1609L12.44 23.1698L12.4847 23.188L12.5293 23.206L12.5742 23.2243L12.6098 23.2512L12.6189 23.2603V23.2783L12.61 23.2872L12.5742 23.3145L12.5384 23.3416L12.5027 23.3776L12.4669 23.4227V23.4587L12.458 23.4949L12.4669 23.54L12.4758 23.5943L12.6278 23.6483L12.7889 23.7025L12.8604 23.7205L12.9322 23.7476L12.9858 23.7747L13.0304 23.8018L12.7353 24.0363L12.8158 24.1085L12.9142 24.1627L13.0396 24.2258L13.1647 24.2709L13.308 24.316L13.4422 24.3432L13.5584 24.3703H13.666L13.5676 24.4425L13.4422 24.5236L13.308 24.5958L13.2096 24.668L13.2991 24.7312L13.4242 24.7945L13.5676 24.8665L13.7376 24.9478L14.1311 25.1194L14.5607 25.2907L15.0082 25.4532L15.4467 25.5976L15.6436 25.6607L15.8224 25.7058L15.9836 25.7509L16.1267 25.778L15.8404 25.7509L15.572 25.7149L15.3036 25.6698L15.0529 25.6156L14.8024 25.5434L14.5607 25.4712L14.328 25.39L14.1044 25.2998L13.666 25.1194L13.2542 24.9387L13.0573 24.8576L12.8604 24.7763L12.6727 24.704L12.4847 24.632L12.5293 24.6049L12.5831 24.5869L12.6547 24.5598L12.7353 24.5418L12.9053 24.4876L13.0573 24.4334L12.7889 24.3883L12.4222 24.316L12.2431 24.262L12.0909 24.2169L12.0282 24.1898L11.9747 24.1627L11.93 24.1356L11.9031 24.1085V24.0996L11.912 24.0905L11.9387 24.0816L11.9658 24.0634L12.0373 24.0363L12.1358 24.0094L12.3504 23.946L12.5296 23.8829L12.0909 23.8018L11.7509 23.7476L11.6256 23.7205L11.5271 23.6845L11.4916 23.6663L11.4556 23.6394L11.4289 23.6212L11.4109 23.5943L11.4376 23.576L11.5182 23.5583L11.6347 23.54L11.7689 23.5129L11.912 23.4949L12.0373 23.4587L12.1 23.4409L12.1536 23.4227L12.1893 23.3956L12.2251 23.3685L12.1536 23.3414L12.082 23.3145L11.9924 23.2963L11.9031 23.2785L11.6973 23.2512L11.4913 23.2243L11.384 23.1972L11.2856 23.1792L11.1871 23.1429L11.0887 23.1069L10.9993 23.0618L10.9187 22.9985L10.8471 22.9354L10.7933 22.8543L10.8111 22.8452L10.8471 22.8363H10.8918L10.9636 22.8452L11.1244 22.854L11.3036 22.8632L11.5004 22.8812H11.7509L11.8224 22.8723L11.8762 22.8543L11.912 22.836L11.6973 22.7458L11.4109 22.6196L11.2498 22.5383L11.0798 22.4572L10.9098 22.3669L10.7398 22.2767L10.5787 22.1774L10.4264 22.0692L10.2833 21.9607L10.158 21.8525L10.1044 21.7894L10.0507 21.7352L10.0151 21.6809L9.97911 21.6178L9.94333 21.5638L9.92556 21.5005L9.91667 21.4465L9.90756 21.3832H9.97022L10.0418 21.392L10.1133 21.4194L10.1849 21.4465L10.3282 21.5367L10.4891 21.6269L10.5607 21.672L10.6413 21.7172L10.7218 21.7532L10.7933 21.7803L10.874 21.7983L10.9456 21.8074H11.026L11.0978 21.7803L10.8829 21.618L10.6413 21.4103L10.364 21.1667L10.0864 20.8958L9.80911 20.6072L9.54956 20.3183L9.43333 20.1649L9.31689 20.0205L9.21844 19.876L9.12911 19.7407L9.11111 19.7047V19.6416L9.12 19.6145L9.12889 19.5874L9.15578 19.5694L9.18267 19.5423L9.20956 19.5243L9.24533 19.5154L9.28111 19.5063H9.35267L9.39756 19.5152L9.43311 19.524L9.46911 19.5514L9.49578 19.5785L9.65689 19.7407L9.84489 19.9303L10.0418 20.1378L10.2564 20.3454L10.4713 20.5349L10.686 20.7154L10.7933 20.7876L10.8918 20.8507L10.9993 20.9049L11.0978 20.9409L11.026 20.8958L10.9456 20.8147L10.8382 20.7065L10.7218 20.5709L10.4624 20.2554L10.1758 19.8852L10.0329 19.6867L9.89867 19.488L9.77333 19.2896L9.648 19.1L9.54067 18.9196L9.45111 18.7574L9.38844 18.6038L9.33489 18.4774L9.326 18.4323V18.36L9.33489 18.3329L9.35267 18.306L9.37044 18.2789L9.38844 18.2609L9.41533 18.2427L9.478 18.2249L9.53178 18.2067H9.65689L9.69267 18.2156L9.71956 18.2247L9.75533 18.2427L9.78222 18.2698L9.85378 18.3329L9.92533 18.4234L10.0864 18.6309L10.2564 18.8925L10.4533 19.1725L10.6591 19.4612L10.7667 19.5965L10.874 19.7318L10.9902 19.8492L11.1156 19.9574L10.9636 19.6596L10.7933 19.3167L10.704 19.1272L10.6233 18.9376L10.5429 18.7392L10.4713 18.5405L10.4087 18.3329L10.346 18.1345L10.3013 17.936L10.2656 17.7374L10.2478 17.5478L10.2387 17.3674L10.2476 17.2772L10.2564 17.196L10.2653 17.1147L10.2833 17.0336L10.3011 17.0065L10.31 16.9794L10.3371 16.9523L10.3549 16.9343L10.4176 16.9072L10.4802 16.8892H10.5429L10.5967 16.898L10.6233 16.9072L10.6411 16.916L10.6502 16.9343L10.6591 16.9614L10.7487 17.2503L10.8293 17.5569L10.9098 17.8727L10.9902 18.1796L11.0709 18.4863L11.1782 18.7752L11.232 18.9107L11.2944 19.046L11.3662 19.1723L11.4467 19.2987L11.3929 19.0369L11.3573 18.8023L11.3213 18.5858L11.3036 18.3872L11.2858 18.2158L11.2767 18.0625L11.2856 17.9358L11.2944 17.8276L11.3124 17.7374L11.3391 17.6652L11.3571 17.6383L11.3749 17.6112L11.3929 17.5929L11.4198 17.5752L11.4467 17.566H11.5271L11.5989 17.5929L11.6704 17.6292L11.7331 17.918L11.7958 18.1976L11.8673 18.4594L11.9478 18.712L12.0373 18.9647L12.1358 19.2174L12.2431 19.4792L12.3684 19.7407L12.4578 19.9123L12.5473 20.0838L12.6458 20.2552L12.7442 20.4267L12.8516 20.5889L12.9589 20.7516L13.0753 20.9138L13.1916 21.0765L13.4064 21.3472L13.6302 21.5998L13.8629 21.8525L14.1044 22.0872L14.3549 22.3218L14.6144 22.5383L14.8829 22.7458L15.1602 22.9445L15.3482 23.0707L15.5451 23.188L15.7509 23.3054L15.9478 23.4136L16.2611 23.5669L16.5653 23.7114L16.8876 23.8378L17.2096 23.9552L17.514 24.0545L17.8269 24.1356L18.1491 24.2078L18.4624 24.2709L18.7936 24.316L19.1158 24.3523L19.4469 24.3792L19.7778 24.3974ZM20.6411 27.2189L20.7971 27.2372L20.8704 27.2645L20.8889 27.2734V27.2827H20.8704L20.8522 27.2916L20.7056 27.3189H20.5862L20.2009 27.2916L19.7329 27.2827L19.2284 27.2736L18.7053 27.2825L18.4578 27.2916L18.21 27.3098L17.99 27.328L17.7789 27.3463L17.6044 27.3736L17.4484 27.41L17.3936 27.4283L17.3384 27.4465L17.2927 27.4647L17.2558 27.492L17.2742 27.4009L17.3109 27.3098L17.2467 27.328L17.1824 27.3463L17.1273 27.3736L17.0724 27.4009L17.0264 27.4283L16.9898 27.4647L16.9622 27.5103L16.9531 27.5558L16.9256 27.492L16.9073 27.4374L16.898 27.3736L16.8889 27.3189L16.898 27.2734L16.9073 27.2189L16.9162 27.1734L16.944 27.1278L16.9622 27.0914L16.9989 27.0458L17.0358 27.0094L17.0724 26.9729L17.1733 26.9092L17.2833 26.8454C17.3429 26.8812 17.4096 26.9072 17.476 26.9276C17.5338 26.9349 17.602 26.9258 17.6687 26.9092C17.7807 27.0069 17.9304 26.9949 18.0264 26.8909C18.0466 26.8701 18.0623 26.8453 18.0724 26.818C18.0876 26.7656 18.0847 26.6967 18.0724 26.6358L18.1824 26.6269L18.3109 26.6087L18.4487 26.5723L18.5953 26.5358L18.742 26.5085L18.8798 26.472L19.0082 26.4538L19.1182 26.4447L19.0724 26.4812L18.9622 26.5632L18.8338 26.6632L18.742 26.7269L18.8613 26.7543L18.9622 26.7725L18.8889 26.8547L18.8156 26.9365L18.7422 27.0185L18.6871 27.0914L18.7604 27.1187L18.8338 27.1369L18.9164 27.1552H19.0816L19.164 27.1369L19.2467 27.1187L19.3109 27.0823L19.3842 27.1187L19.4576 27.146L19.5309 27.1643L19.6044 27.1825L19.7696 27.2007L19.944 27.2189H20.6411Z" fill="#E5B731"/>
<path fill-rule="evenodd" clip-rule="evenodd" d="M17.8956 26.667L17.9347 26.681L17.9738 26.6948L17.9871 26.7363L18 26.7781L17.9869 26.8199L17.9738 26.8614L17.9347 26.8892H17.8431L17.8169 26.8614L17.7909 26.8199L17.7778 26.7781L17.7909 26.7363L17.8169 26.6948L17.8431 26.681L17.8956 26.667Z" fill="#E5B731"/>
<path fill-rule="evenodd" clip-rule="evenodd" d="M17.8047 26.667L17.8227 26.6759L17.8316 26.6941L17.8227 26.7119L17.8049 26.721L17.7867 26.7121L17.7778 26.6941L17.7867 26.6761L17.8047 26.667Z" fill="#E5B731"/>
<path fill-rule="evenodd" clip-rule="evenodd" d="M24.6678 27.6067L24.604 27.6336L24.54 27.6425L24.4853 27.6516L24.4396 27.6427L24.394 27.6338L24.3484 27.6156L24.312 27.5978L24.2662 27.5707L24.1933 27.5165L24.1202 27.4625L24.0838 27.4354L24.0382 27.4176L24.0016 27.4085H23.956L23.8738 27.5796L23.7644 27.7958L23.7278 27.8498L23.6913 27.8949L23.6549 27.9221L23.6184 27.9489L23.5727 27.9669H23.5271L23.4816 27.9492L23.4267 27.9221L23.4084 27.8949L23.3902 27.8678L23.372 27.8318L23.3538 27.7869L23.3356 27.7058L23.3264 27.6516L23.2716 27.6967L23.2169 27.7598L23.1713 27.8318L23.1164 27.9129L23.0527 27.9941L22.9887 28.0572L22.9522 28.0932L22.9067 28.1203L22.8609 28.1381L22.8062 28.1563H22.7789L22.7333 28.1652L22.6876 28.1563L22.6511 28.1383L22.5416 28.0121L22.4229 27.8861L22.3407 28.0121L22.2496 28.1203L22.204 28.1652L22.1584 28.2103L22.1127 28.2463L22.0671 28.2734L22.0307 28.2912L21.9849 28.3003H21.9393L21.9029 28.2914L21.8664 28.2734L21.8389 28.2463L21.8024 28.2012L21.7842 28.1472L21.766 28.0932L21.7296 28.0032L21.7204 27.958L21.702 27.9221L21.6838 27.904H21.6656L21.4193 28.3003L21.3827 28.3365L21.3189 28.3634L21.2458 28.3814L21.1729 28.3994H21.0907L21.0269 28.3816L21.0087 28.3725L20.9813 28.3454L20.972 28.3274V28.2914L21.0087 27.8949L20.9813 27.9038L20.9447 27.9221L20.9082 27.9398L20.8718 27.976L20.7987 28.0572L20.7164 28.1472L20.6344 28.2463L20.534 28.3274L20.4884 28.3634L20.4429 28.3994L20.388 28.4265L20.3424 28.4354L20.2787 28.4445L20.2329 28.4356L20.2147 28.4265L20.1964 28.4085L20.1873 28.3814V28.3545L20.1964 28.2374L20.2147 28.1203L20.2238 28.0572L20.2149 28.0032L20.2056 27.9489L20.1691 27.8861L20.1144 27.9669L20.0231 28.084L19.9136 28.2012L19.7949 28.3183L19.7311 28.3634L19.6671 28.4085L19.6124 28.4263L19.5669 28.4445L19.5487 28.4356H19.5211L19.5029 28.4174L19.494 28.4085L19.4756 28.3814L19.4667 28.3545V28.3183L19.4573 28.2734L19.4664 27.9312L19.2382 28.084L18.9647 28.2552L18.9007 28.2823L18.8278 28.3183L18.7638 28.3365L18.6909 28.3543L18.6269 28.3725H18.5631L18.4991 28.3636L18.4444 28.3454L18.4718 28.2734L18.4991 28.2103L18.5267 28.1472L18.5631 28.0932L18.5996 28.0392L18.636 27.9849L18.6818 27.9401L18.7273 27.8949L18.8278 27.8229L18.9462 27.7507L19.0649 27.6967L19.2018 27.6516L19.3387 27.6156L19.4938 27.5887L19.6489 27.5616L19.804 27.5436L20.1418 27.5256L20.4884 27.5167H21.1818L21.3553 27.5076L21.5198 27.4987L21.6838 27.4896L21.8389 27.4716L21.9942 27.4445L22.1309 27.4174L22.2678 27.3814L22.3956 27.3274L22.5142 27.2734L22.6147 27.2012L22.7151 27.1292L22.7973 27.0301L22.7058 26.85L22.7789 26.8409L22.8518 26.8229L22.9249 26.7869L22.9887 26.7418L23.0162 26.7238L23.0436 26.6967L23.0618 26.6607L23.08 26.6336L23.0891 26.5976V26.5345L23.0709 26.4985L23.226 26.4716L23.3904 26.4536L23.5638 26.4445H23.746L24.1202 26.4625L24.5036 26.4896L24.8958 26.5345L25.2791 26.5707L25.6533 26.6067L26 26.6245V26.7507L25.9909 26.8049L25.9727 26.8589L25.9544 26.9129L25.9362 26.958L25.9087 26.9941L25.8722 27.0392L25.8084 27.102L25.7262 27.1563L25.644 27.1923L25.5529 27.21L25.4524 27.2283L25.3522 27.2194L25.2609 27.2103L25.1604 27.1832L25.0693 27.1383L24.978 27.0932L24.9049 27.0301L24.832 26.958V27.1112L24.8047 27.3094L24.7864 27.4085L24.7589 27.4985L24.7407 27.5345L24.7133 27.5616L24.6951 27.5887L24.6678 27.6065M17.3333 26.7985L17.5409 26.8892L17.5951 26.8438L17.6673 26.7894L17.7484 26.7441L17.8207 26.6985L18.0916 26.5896L18.326 26.4807L18.4433 26.4354L18.5427 26.3809L18.642 26.3265L18.7231 26.272L18.9307 26.1361L19.1384 25.9998L19.3369 25.8727L19.5173 25.7458L19.6529 25.6369L19.7611 25.5369L19.8784 25.428L20.0047 25.3103L20.0498 25.2649L20.104 25.2285L20.1671 25.1923L20.2393 25.156L20.3927 25.0834L20.5462 25.0289L20.7538 24.9745L20.9796 24.92L21.214 24.8747L21.4758 24.8292L21.7918 24.7929L22.1076 24.7476L22.4324 24.7114L22.7484 24.6569L22.8567 24.6387L22.956 24.6114L23.0642 24.5843L23.1724 24.5569L23.2809 24.4209L23.4522 24.2303L23.5696 24.1125L23.7051 24.0036L23.8584 23.8856L24.0389 23.7676L24.3098 23.6043L24.5987 23.4589L24.8964 23.3047L25.1851 23.1687L25.4558 23.0325L25.7084 22.9056L25.9162 22.7967L26.0784 22.6878L26.1238 22.5516L26.1869 22.4154L26.268 22.2794L26.3673 22.1432L26.4758 21.998L26.6111 21.8529L26.7556 21.6896L26.936 21.5172L27.0982 21.3718L27.2698 21.2267L27.3602 21.1632L27.4504 21.0996L27.5496 21.0452L27.6489 20.9907L27.7482 20.9454L27.8476 20.9092L27.9558 20.8818L28.0551 20.8547L28.1633 20.8456L28.2627 20.8367L28.3709 20.8456L28.4702 20.8638L28.4613 20.9727L28.434 21.0816L28.398 21.1905L28.3529 21.3083L28.2898 21.4263L28.2084 21.5443L28.1091 21.6714L27.9918 21.7985L28.0822 21.7894L28.1633 21.7712L28.2264 21.7529L28.2898 21.7258L28.3438 21.7076L28.4071 21.6896L28.4882 21.6805L28.5784 21.6714L28.5873 21.7349V21.7985L28.5784 21.8618L28.5604 21.9165L28.5333 21.9709L28.4973 22.0254L28.4611 22.0707L28.416 22.116L28.2264 22.2976L28.0369 22.4698L28.1453 22.4789L28.2627 22.5154L28.38 22.5516L28.4702 22.5698L28.362 22.6514L28.2356 22.7332L28.1091 22.8147L27.9647 22.8965L27.8202 22.978L27.676 23.0689L27.5316 23.1687L27.3962 23.2776L27.4593 23.2865L27.5407 23.3229L27.5767 23.3318L27.6129 23.35L27.64 23.3592L27.6669 23.3503L27.4864 23.45L27.2609 23.5589L27.1524 23.6134L27.0622 23.6678L27.0171 23.6949L26.99 23.7223L26.9722 23.7494L26.954 23.7767L26.9629 23.8129L26.9811 23.84L27.0171 23.8674L27.0442 23.8945L27.0353 23.9309L27.0171 23.958L26.9811 23.9854L26.9449 24.0125L26.8638 24.0581L26.7556 24.1034L26.6471 24.1396L26.5478 24.1758L26.4758 24.2123L26.4216 24.2394L26.602 24.4209L26.5389 24.4845L26.4758 24.5298L26.4216 24.5569L26.3584 24.5843L26.232 24.6025H26.0604L26.0787 24.684L26.1056 24.7658L26.1238 24.8565L26.1416 24.9472L25.9882 25.0652L25.7989 25.2014L25.5913 25.3374L25.3567 25.4736L25.2211 25.5461L25.0858 25.6096L24.9413 25.664L24.788 25.7185L24.6256 25.7729L24.454 25.8094L24.2736 25.8456L24.084 25.8727L24.418 25.8818H24.7069L24.9776 25.8547L25.2211 25.8274L25.4469 25.782L25.6453 25.7276L25.844 25.6549L26.0336 25.5825L26.2862 25.4645L26.5298 25.3283L26.7644 25.1832L27.0082 25.038L26.8638 24.9654L26.7193 24.92L26.6471 24.8927L26.5749 24.8565L26.4938 24.8203L26.4124 24.7747L26.4847 24.7203L26.566 24.684L26.6651 24.6478L26.7736 24.6205L26.99 24.5752L27.2158 24.548L27.4142 24.5207L27.5947 24.5025L27.6669 24.4845L27.7302 24.4663L27.7662 24.448L27.7933 24.4209L27.7844 24.412L27.7662 24.3936L27.7391 24.3847L27.7031 24.3665L27.6038 24.3483L27.4776 24.3303L27.3509 24.3212L27.2247 24.3029L27.1164 24.2758L27.0442 24.2485L27.288 24.194L27.5316 24.1396L27.7482 24.0943L27.9287 24.0489L28.082 24.0034L28.2176 23.9489L28.2807 23.9218L28.3258 23.8945L28.3709 23.8674L28.4071 23.8312L28.398 23.8221L28.38 23.8038L28.3438 23.7949L28.2987 23.7856L28.1813 23.7767H28.046L27.9016 23.7676L27.7662 23.7585L27.6489 23.7403L27.5767 23.7223L27.64 23.6949L27.7031 23.6678L27.9198 23.6043L28.1091 23.5498L28.2807 23.5045L28.4431 23.45L28.6147 23.3956L28.786 23.3229L28.8673 23.2776L28.9396 23.2323L28.9667 23.2049L28.9936 23.1687L29.0207 23.1414L29.0296 23.1143L29.0207 23.0869L28.9936 23.0687L28.9667 23.0598H28.7138L28.5964 23.0687H28.4342L28.3889 23.0598L28.3529 23.0416L28.3167 23.0234L28.6778 22.7876L29.0118 22.5698L29.3096 22.3792L29.5713 22.1976L29.6796 22.1069L29.7789 22.0163L29.86 21.9254L29.9322 21.8347L29.9864 21.7347L30.0316 21.6352L30.0587 21.5263V21.4083H29.9953L29.9322 21.4172L29.86 21.4445L29.7878 21.4718L29.6433 21.5625L29.49 21.6532L29.4089 21.6985L29.3367 21.744L29.2553 21.7803L29.1742 21.8074L29.102 21.8256L29.0298 21.8345H28.9484L28.8762 21.8074L29.0929 21.644L29.3367 21.4354L29.6164 21.1905L29.8962 20.9183L30.176 20.6278L30.4376 20.3374L30.5549 20.1832L30.6722 20.038L30.7716 19.8927L30.8618 19.7567L30.8798 19.7203L30.8889 19.6932L30.88 19.6569L30.8709 19.6296L30.862 19.6025L30.8347 19.5843L30.8076 19.5569L30.7807 19.548L30.7444 19.5298L30.7084 19.5209H30.6362L30.6 19.5298L30.5549 19.5387L30.528 19.566L30.4918 19.5934L30.3293 19.7567L30.1398 19.9472L29.9413 20.156L29.7247 20.3647L29.508 20.5552L29.2916 20.7367L29.1831 20.8094L29.0838 20.8727L28.9756 20.9272L28.8853 20.9727L28.9484 20.9183L29.0298 20.8365L29.138 20.7276L29.2553 20.5916L29.5171 20.2738L29.806 19.9018L29.9504 19.7023L30.0856 19.5025L30.2211 19.312L30.3384 19.1125L30.4467 18.9309L30.5369 18.7676L30.6091 18.6134L30.6542 18.4863L30.6631 18.4409V18.3683L30.6542 18.3412L30.6362 18.3138L30.6182 18.2867L30.6 18.2685L30.5731 18.2596L30.5189 18.2323L30.4558 18.214H30.3293L30.2933 18.2229L30.2662 18.2323L30.23 18.2503L30.2029 18.2776L30.1309 18.3412L30.0587 18.4318L29.8962 18.6407L29.7247 18.9036L29.5351 19.1849L29.3276 19.4754L29.2102 19.6114L29.102 19.7476L28.9847 19.8654L28.8582 19.9743L29.0207 19.6749L29.1831 19.3303L29.2733 19.1396L29.3547 18.9492L29.4358 18.7494L29.508 18.5498L29.5713 18.3409L29.6344 18.1414L29.6796 17.9418L29.7156 17.742L29.7338 17.5516L29.7427 17.37L29.7338 17.2794L29.7247 17.1976L29.7158 17.116L29.6976 17.0343L29.6887 17.0072L29.6704 16.9798L29.6433 16.9527L29.6256 16.9345L29.5622 16.9074L29.4991 16.8892H29.4358L29.3818 16.898L29.3636 16.9074L29.3367 16.9163L29.3276 16.9345L29.3187 16.9618L29.2282 17.2612L29.1471 17.5607L29.0658 17.8783L28.9847 18.1867L28.9033 18.4954L28.7951 18.7856L28.7409 18.9309L28.6778 19.058L28.6056 19.194L28.5244 19.3118L28.5784 19.0489L28.6147 18.8129L28.6507 18.5952L28.6687 18.3956L28.6869 18.2232L28.6958 18.0689L28.6869 17.9418L28.6778 17.8329L28.6598 17.742L28.6327 17.6696L28.6147 17.6423L28.5964 17.6152L28.5787 17.5969L28.5513 17.588L28.5244 17.5787L28.4973 17.5698H28.4702L28.4431 17.5787L28.3709 17.5969L28.2987 17.6332L28.2356 17.9236L28.1724 18.2049L28.1002 18.468L28.0189 18.7223L27.9287 18.9763L27.8293 19.2303L27.7211 19.4936L27.5947 19.7567L27.5044 19.9292L27.4142 20.1014L27.3149 20.2738L27.2158 20.4463L27.1073 20.6096L26.9991 20.7729L26.8818 20.9363L26.7644 21.0996L26.5478 21.3718L26.3222 21.626L26.0876 21.88L25.844 22.116L25.5911 22.3518L25.3296 22.5696L25.0587 22.7785L24.7789 22.978L24.5893 23.1052L24.3909 23.232L24.1924 23.35L23.9938 23.468L23.678 23.6134L23.362 23.7585L23.0371 23.8763L22.7122 23.9945L22.4416 24.076L22.1707 24.1578L21.8909 24.2212L21.6111 24.2847L21.3313 24.33L21.0424 24.3665L20.7629 24.4027L20.474 24.4209L20.4469 24.4298L20.4198 24.4389L20.3658 24.4663L20.3027 24.5116L20.2122 24.5934L20.0949 24.7023L19.9504 24.8474L19.7791 25.038L19.6167 25.2285L19.4271 25.4374L19.3278 25.5369L19.2287 25.6369L19.1113 25.7276L18.994 25.8183L18.9038 25.8818L18.8133 25.9363L18.7142 25.9816L18.6149 26.0272L18.3982 26.1178L18.1818 26.1994L17.9651 26.2812L17.7756 26.3538L17.6944 26.39L17.6131 26.4354L17.5409 26.4716L17.4867 26.5081L17.4327 26.5625L17.3876 26.6078L17.3604 26.6532L17.3424 26.6985L17.3333 26.762V26.7985Z" fill="#E5B731"/>
<path fill-rule="evenodd" clip-rule="evenodd" d="M17.7778 26.7002C17.7778 26.6912 17.7813 26.6827 17.7876 26.6764C17.794 26.6701 17.8025 26.6665 17.8114 26.6665C17.8204 26.6665 17.8289 26.6701 17.8353 26.6764C17.8416 26.6827 17.8451 26.6912 17.8451 26.7002C17.8451 26.7091 17.8416 26.7177 17.8353 26.724C17.8289 26.7303 17.8204 26.7338 17.8114 26.7338C17.8025 26.7338 17.794 26.7303 17.7876 26.724C17.7813 26.7177 17.7778 26.7091 17.7778 26.7002C17.7778 26.7002 17.7778 26.7188 17.7778 26.7002Z" fill="#FEC50C"/>
<path d="M17.7778 26.7002C17.7778 26.6912 17.7813 26.6827 17.7876 26.6764C17.794 26.6701 17.8025 26.6665 17.8114 26.6665C17.8204 26.6665 17.8289 26.6701 17.8353 26.6764C17.8416 26.6827 17.8451 26.6912 17.8451 26.7002C17.8451 26.7091 17.8416 26.7177 17.8353 26.724C17.8289 26.7303 17.8204 26.7338 17.8114 26.7338C17.8025 26.7338 17.794 26.7303 17.7876 26.724C17.7813 26.7177 17.7778 26.7091 17.7778 26.7002ZM17.7778 26.7002C17.7778 26.7002 17.7778 26.7188 17.7778 26.7002Z" stroke="#00AFCA" stroke-width="1.08373"/>
<path fill-rule="evenodd" clip-rule="evenodd" d="M19.4113 11.089C19.7351 11.085 19.8567 10.8905 19.8567 10.657C19.8567 10.3456 19.4113 8.86276 19.4113 8.86276C19.4113 8.86276 18.966 10.3456 18.966 10.657C18.966 10.8903 19.0876 11.089 19.4113 11.089ZM20.4184 11.0705C20.7371 11.1283 20.8936 10.9605 20.938 10.7314C20.9973 10.4256 20.8433 8.88498 20.8433 8.88498C20.8433 8.88498 20.1233 10.2559 20.0638 10.5614C20.0193 10.7908 20.1007 11.009 20.4184 11.0705ZM21.4107 11.2445C21.7124 11.3623 21.8978 11.2272 21.9853 11.0108C22.102 10.7219 22.2447 9.18031 22.2447 9.18031C22.2447 9.18031 21.2762 10.3885 21.1598 10.6772C21.0722 10.8936 21.1104 11.1232 21.4107 11.2445ZM22.4331 11.6461C22.7038 11.8239 22.9131 11.7305 23.044 11.5372C23.218 11.279 23.678 9.80054 23.678 9.80054C23.678 9.80054 22.4798 10.781 22.3056 11.039C22.1751 11.2325 22.1647 11.4652 22.4331 11.6461ZM23.2784 12.1941C23.5102 12.4203 23.7338 12.3685 23.8989 12.2034C24.1189 11.9834 24.8527 10.6199 24.8527 10.6199C24.8527 10.6199 23.4893 11.3536 23.2691 11.5736C23.104 11.7388 23.0496 11.965 23.2784 12.1941ZM24.0038 12.8932C24.1882 13.1594 24.4171 13.1512 24.6109 13.0208C24.8691 12.8465 25.8493 11.6483 25.8493 11.6483C25.8493 11.6483 24.3711 12.1083 24.1129 12.2823C23.9193 12.413 23.8227 12.6245 24.0038 12.8932ZM24.5822 13.7176C24.7124 14.0143 24.9389 14.0501 25.154 13.9588C25.4407 13.8372 26.6318 12.8479 26.6318 12.8479C26.6318 12.8479 25.0927 13.0174 24.806 13.139C24.5909 13.2303 24.4558 13.4194 24.5822 13.7176ZM25.0213 14.7248C25.0869 15.0419 25.3011 15.1241 25.5302 15.0794C25.836 15.0201 27.2067 14.3001 27.2067 14.3001C27.2067 14.3001 25.666 14.1459 25.3604 14.2054C25.1311 14.2499 24.9593 14.407 25.0213 14.7248ZM25.2316 15.7099C25.2356 16.0339 25.43 16.1552 25.6636 16.1552C25.9749 16.1552 27.4578 15.7099 27.4578 15.7099C27.4578 15.7099 25.9749 15.2648 25.6636 15.2648C25.4302 15.2648 25.2316 15.3861 25.2316 15.7099ZM25.25 16.7172C25.1922 17.0356 25.36 17.1921 25.5891 17.2365C25.8949 17.2961 27.4356 17.1419 27.4356 17.1419C27.4356 17.1419 26.0647 16.4219 25.7591 16.3625C25.5298 16.3181 25.3116 16.3992 25.25 16.7172ZM25.076 17.7092C24.9582 18.011 25.0933 18.1965 25.3098 18.2839C25.5987 18.4005 27.1402 18.5432 27.1402 18.5432C27.1402 18.5432 25.932 17.575 25.6433 17.4583C25.4269 17.3708 25.1973 17.4088 25.076 17.7092ZM24.6744 18.7319C24.4967 19.0025 24.59 19.2119 24.7833 19.3425C25.0416 19.5165 26.52 19.9768 26.52 19.9768C26.52 19.9768 25.5396 18.7783 25.2816 18.6043C25.0878 18.4736 24.8553 18.4634 24.6744 18.7319ZM24.1264 19.5772C23.9002 19.8088 23.952 20.0323 24.1171 20.1974C24.3371 20.4174 25.7007 21.1514 25.7007 21.1514C25.7007 21.1514 24.9669 19.7879 24.7469 19.5676C24.5818 19.4025 24.3556 19.3481 24.1264 19.5772ZM23.4273 20.3023C23.1611 20.4868 23.1693 20.7159 23.2998 20.9094C23.474 21.1676 24.6722 22.1481 24.6722 22.1481C24.6722 22.1481 24.2122 20.6696 24.038 20.4114C23.9076 20.2181 23.6958 20.121 23.4273 20.3023ZM22.6029 20.8808C22.3062 21.011 22.2704 21.2376 22.3618 21.4525C22.4833 21.7392 23.4727 22.9303 23.4727 22.9303C23.4727 22.9303 23.3031 21.3912 23.1816 21.1045C23.0902 20.8896 22.9011 20.7543 22.6029 20.8808ZM21.5956 21.3199C21.2784 21.3854 21.1962 21.5996 21.2409 21.8288C21.3002 22.1345 22.0202 23.5052 22.0202 23.5052C22.0202 23.5052 22.1744 21.9645 22.1149 21.659C22.0704 21.4296 21.9133 21.2581 21.5956 21.3199ZM20.6104 21.5301C20.2864 21.5341 20.1651 21.7288 20.1651 21.9621C20.1651 22.2736 20.6104 23.7565 20.6104 23.7565C20.6104 23.7565 21.0556 22.2736 21.0556 21.9621C21.0556 21.7288 20.9342 21.5301 20.6104 21.5301ZM19.6031 21.5488C19.2847 21.4908 19.1282 21.6585 19.0838 21.8879C19.0242 22.1934 19.1784 23.7341 19.1784 23.7341C19.1784 23.7341 19.8984 22.3634 19.9578 22.0576C20.0022 21.8285 19.9211 21.6105 19.6031 21.5488ZM18.6111 21.3745C18.3093 21.2568 18.1238 21.3919 18.0364 21.6083C17.9198 21.8972 17.7771 23.4388 17.7771 23.4388C17.7771 23.4388 18.7453 22.2308 18.862 21.9421C18.9496 21.7254 18.9116 21.4959 18.6111 21.3745ZM17.5884 20.973C17.3178 20.7952 17.1084 20.8885 16.9778 21.0821C16.8038 21.3403 16.3436 22.8185 16.3436 22.8185C16.3436 22.8185 17.542 21.8383 17.716 21.5801C17.8467 21.3865 17.8569 21.1541 17.5884 20.973ZM16.7431 20.425C16.5116 20.1988 16.288 20.2505 16.1229 20.4156C15.9029 20.6359 15.1689 21.9994 15.1689 21.9994C15.1689 21.9994 16.5324 21.2656 16.7527 21.0454C16.9178 20.8803 16.9722 20.6541 16.7431 20.425ZM16.018 19.7261C15.8336 19.4596 15.6044 19.4679 15.4109 19.5985C15.1527 19.7725 14.1722 20.971 14.1722 20.971C14.1722 20.971 15.6507 20.511 15.9089 20.3368C16.1022 20.2061 16.1993 19.9945 16.018 19.7261ZM15.4393 18.9014C15.3093 18.6048 15.0827 18.569 14.8678 18.6603C14.5811 18.7819 13.39 19.7714 13.39 19.7714C13.39 19.7714 14.9291 19.6016 15.2158 19.4801C15.4307 19.389 15.566 19.1994 15.4393 18.9014ZM15.0004 17.8943C14.9349 17.5772 14.7204 17.4952 14.4916 17.5396C14.1858 17.599 12.8151 18.3192 12.8151 18.3192C12.8151 18.3192 14.3558 18.4732 14.6613 18.4139C14.8907 18.3694 15.0622 18.2121 15.0004 17.8943ZM14.7902 16.9092C14.7862 16.5854 14.5916 16.4639 14.358 16.4639C14.0469 16.4639 12.5638 16.9092 12.5638 16.9092C12.5638 16.9092 14.0467 17.3545 14.358 17.3545C14.5916 17.3545 14.7902 17.233 14.7902 16.9092ZM14.7716 15.9021C14.8296 15.5834 14.6618 15.427 14.4324 15.3825C14.1269 15.3232 12.5862 15.4772 12.5862 15.4772C12.5862 15.4772 13.9569 16.1972 14.2627 16.2568C14.4918 16.3012 14.7098 16.2199 14.7716 15.9021ZM14.9456 14.9099C15.0633 14.6081 14.9284 14.4228 14.712 14.3352C14.4231 14.2185 12.8816 14.0759 12.8816 14.0759C12.8816 14.0759 14.0896 15.0443 14.3782 15.1608C14.5949 15.2483 14.8244 15.2103 14.9456 14.9099ZM15.3473 13.8874C15.5251 13.6168 15.4318 13.4074 15.2382 13.2765C14.98 13.1025 13.5018 12.6423 13.5018 12.6423C13.5018 12.6423 14.482 13.8408 14.7402 14.015C14.9338 14.1454 15.1662 14.1559 15.3473 13.8874ZM15.8951 13.0421C16.1216 12.8103 16.0698 12.5868 15.9047 12.4216C15.6844 12.2016 14.3209 11.4679 14.3209 11.4679C14.3209 11.4679 15.0547 12.8312 15.2749 13.0514C15.44 13.2165 15.6662 13.271 15.8951 13.0421ZM16.5942 12.3168C16.8607 12.1323 16.8524 11.9034 16.7218 11.7096C16.5478 11.4514 15.3493 10.4712 15.3493 10.4712C15.3493 10.4712 15.8093 11.9494 15.9836 12.2076C16.1142 12.4012 16.3258 12.4979 16.5942 12.3168ZM17.4189 11.7383C17.7156 11.6081 17.7513 11.3816 17.66 11.1665C17.5382 10.8799 16.5489 9.68876 16.5489 9.68876C16.5489 9.68876 16.7187 11.2279 16.8402 11.5145C16.9313 11.7294 17.1209 11.8648 17.4189 11.7383ZM18.426 11.2992C18.7431 11.2336 18.8251 11.0194 18.7807 10.7903C18.7213 10.4845 18.0011 9.11387 18.0011 9.11387C18.0011 9.11387 17.8471 10.6545 17.9064 10.9601C17.9509 11.1894 18.1082 11.361 18.426 11.2992ZM2.95555 30.4688C3.176 30.1861 3.468 30.0083 3.75333 29.9383C3.65596 29.9186 3.56139 29.887 3.47178 29.8441C3.054 29.7828 2.76244 29.3768 2.67667 29.1708C2.67317 29.1624 2.66983 29.1539 2.66667 29.1454C2.66333 29.1543 2.66 29.163 2.65667 29.1705C2.61689 29.2661 2.53311 29.4043 2.41311 29.5314C2.31237 29.3459 2.21458 29.1587 2.11978 28.9701C2.22999 28.8166 2.28929 28.6324 2.28933 28.4434C2.28933 28.145 2.26711 27.9412 2.19889 27.7623C1.65111 26.3281 0.243777 22.6196 0.243777 22.6196C0.202329 22.512 0.164383 22.4031 0.13 22.293C0.0824026 21.8759 0.0478672 21.4574 0.026444 21.0381C0.0842217 20.6803 0.235333 20.3776 0.474666 20.1728C0.434598 20.1616 0.394943 20.149 0.355777 20.135C0.430666 19.9621 0.561333 19.835 0.765111 19.7659V19.7812C0.456666 19.4996 0.301111 19.0856 0.301111 18.7021C0.301111 17.7854 0.590444 17.5639 0.590444 16.2456C0.590444 16.0303 0.555555 15.8145 0.484888 15.6032C0.513555 15.4754 0.543333 15.3483 0.574444 15.2216C0.996 15.527 1.13644 16.1063 0.957777 16.5516C1.09978 16.6263 1.20267 16.5083 1.31333 16.4445C1.31756 16.7508 1.22044 16.8854 1.15067 17.0414C1.15067 17.0414 1.27111 17.0336 1.37956 16.9801C1.36489 17.1772 1.29289 17.3534 1.15067 17.4394C1.74778 17.317 2.06622 17.8068 2.06622 18.3883C2.06622 18.9741 1.65622 19.1274 1.38867 19.031C1.37733 19.1132 1.37844 19.2003 1.41267 19.2952C1.24289 19.2445 1.16422 19.1241 1.22289 18.8781C1.12356 18.8563 1.04644 18.7925 0.978888 18.7096C1.04622 18.6125 1.13178 18.5519 1.22289 18.5261C1.16444 18.3243 1.26689 18.1628 1.39178 18.1281C1.39178 18.1281 1.32111 18.5565 1.57244 18.5565C1.67178 18.5565 1.74111 18.4781 1.74111 18.2965C1.74111 18.0359 1.62444 17.8832 1.33133 17.8832C1.09356 17.8832 0.861555 18.1356 0.861555 18.7021C0.861555 19.1683 1.22911 19.5776 1.56644 19.5668C1.93644 19.5552 2.28933 19.1783 2.28933 18.7172C2.28933 18.4188 2.26711 18.215 2.19889 18.0363C1.87733 17.1941 1.25911 15.5674 0.803777 14.3683C0.884489 14.0927 0.971177 13.8188 1.06378 13.547C1.60378 15.0019 2.40511 17.1532 2.64111 17.7803C2.65178 17.7456 2.66355 17.7114 2.67667 17.677C3.34223 15.8976 4.00482 14.117 4.66444 12.3354C4.75505 12.0957 4.80194 11.8417 4.80289 11.5854C4.80289 10.9103 4.31489 10.6748 4.03778 10.6748C3.70667 10.6748 3.36911 10.9948 3.36911 11.3941C3.36911 11.6472 3.47756 11.7996 3.63422 11.7996C4.00867 11.7996 3.986 11.3959 3.91133 11.1414C4.14444 11.2743 4.28 11.5114 4.24267 11.7614C4.37467 11.7843 4.50044 11.8636 4.616 12.0292C4.52489 12.1752 4.41378 12.2854 4.24267 12.2894C4.31733 12.6772 4.11244 12.8412 3.91133 12.9323C3.97489 12.6476 4.01667 12.3201 3.63422 12.3201C3.35533 12.3201 3.13578 12.2588 3.00756 12.0292C3.00022 12.3354 2.97756 13.5445 2.97756 13.5445C2.96156 13.9988 3.45756 13.9859 3.77267 13.8505C3.65378 14.3739 3.40978 14.657 2.84489 14.5852C2.982 14.6579 3.12822 14.8214 3.12822 15.1363C3.12822 15.5623 2.85533 16.0341 2.67622 16.1739L2.668 15.7621L2.65667 16.319C2.47756 16.1794 2.20489 15.7074 2.20467 15.2812C2.20467 14.9665 2.35089 14.8032 2.488 14.7303C1.92311 14.8021 1.67911 14.5192 1.56022 13.9956C1.87533 14.1312 2.37133 14.1441 2.35533 13.6896C2.35533 13.6896 2.33267 12.4805 2.32533 12.1743C2.19711 12.4039 1.97756 12.4652 1.69867 12.4652C1.31622 12.4652 1.358 12.7928 1.42156 13.0774C1.36581 13.0529 1.31308 13.0221 1.26444 12.9854C1.39586 12.6346 1.53718 12.2876 1.68822 11.9448H1.69867C1.85533 11.9448 1.96378 11.7923 1.96378 11.5392C1.96378 11.4854 1.95756 11.433 1.94622 11.3828C2.06408 11.1363 2.18699 10.8922 2.31489 10.6508C2.46323 10.8199 2.57572 11.0173 2.64556 11.2312C2.80955 10.5614 3.29 10.1641 3.75311 10.0505C3.65574 10.0308 3.56117 9.99919 3.47155 9.95631C3.236 9.92165 3.04089 9.77765 2.89978 9.62165C3.00644 9.44631 3.11556 9.27276 3.22756 9.1012C3.36467 9.28187 3.56311 9.39876 3.76667 9.4052C4.104 9.41587 4.47156 9.00654 4.47156 8.54031C4.47156 8.11453 4.34044 7.86609 4.17422 7.7692C4.37702 7.50718 4.58627 7.25021 4.80178 6.99854C4.88622 7.58965 5.032 7.88987 5.032 8.54053C5.032 8.92387 4.87644 9.33809 4.568 9.61942V9.60409C4.77178 9.6732 4.90244 9.80054 4.97733 9.9732C4.81231 10.0302 4.64099 10.067 4.46711 10.0828C5.03467 10.2683 5.33311 10.8228 5.33311 11.5088C5.33311 11.9883 5.26378 12.2894 5.08933 12.7483C5.08933 12.7483 3.682 16.4568 3.13422 17.891C3.06578 18.0699 3.04378 18.2736 3.04378 18.5721C3.04378 19.0332 3.39667 19.4099 3.76667 19.4216C4.104 19.4323 4.47156 19.023 4.47156 18.5568C4.47156 17.9905 4.23978 17.7381 4.00178 17.7381C3.70867 17.7381 3.592 17.8905 3.592 18.1514C3.592 18.333 3.66133 18.4114 3.76089 18.4114C4.012 18.4114 3.94133 17.983 3.94133 17.983C4.06622 18.0174 4.16867 18.1792 4.11022 18.3808C4.20133 18.4065 4.28689 18.4674 4.35422 18.5645C4.28667 18.6472 4.20956 18.7112 4.11022 18.733C4.16889 18.979 4.09022 19.0994 3.92044 19.1499C3.95467 19.0552 3.956 18.9681 3.94444 18.8859C3.67689 18.9823 3.26667 18.829 3.26667 18.2432C3.26667 17.6614 3.58533 17.1719 4.18244 17.2943C4.04022 17.2081 3.96822 17.0321 3.95356 16.835C4.062 16.8885 4.18244 16.8963 4.18244 16.8963C4.11267 16.7401 4.01578 16.6056 4.01978 16.2994C4.13044 16.3632 4.23333 16.4812 4.37533 16.4065C4.15244 15.851 4.42622 15.0872 5.12222 14.9065C4.86756 15.285 4.74267 15.6936 4.74267 16.1003C4.74267 17.4188 5.032 17.6403 5.032 18.557C5.032 18.9403 4.87644 19.3545 4.568 19.6359V19.6208C4.77178 19.6896 4.90244 19.817 4.97733 19.9896C4.88925 20.0208 4.79901 20.0456 4.70733 20.0636C5.11867 20.3114 5.33333 20.7985 5.33333 21.3801C5.33333 21.8596 5.264 22.1608 5.08956 22.6196C5.08956 22.6196 3.68222 26.3281 3.13444 27.7623C3.066 27.9412 3.044 28.145 3.044 28.4434C3.044 28.9045 3.39689 29.2812 3.76689 29.293C4.10422 29.3036 4.47178 28.8943 4.47178 28.4281C4.47178 27.8619 4.24 27.6094 4.002 27.6094C3.70889 27.6094 3.59222 27.7619 3.59222 28.0228C3.59222 28.2043 3.66156 28.2828 3.76111 28.2828C4.01222 28.2828 3.94156 27.8543 3.94156 27.8543C4.06644 27.8888 4.16889 28.0505 4.11044 28.2521C4.20156 28.2779 4.28711 28.3388 4.35444 28.4359C4.28689 28.5185 4.20978 28.5825 4.11044 28.6043C4.16911 28.8503 4.09044 28.9708 3.92067 29.0212C3.95489 28.9265 3.95622 28.8394 3.94467 28.7572C3.67711 28.8536 3.26689 28.7003 3.26689 28.1145C3.26689 27.5328 3.58556 27.0432 4.18267 27.1656C4.04044 27.0794 3.96844 26.9034 3.95378 26.7063C4.06222 26.7599 4.18267 26.7676 4.18267 26.7676C4.11289 26.6114 4.016 26.477 4.02 26.1708C4.13067 26.2345 4.23356 26.3525 4.37556 26.2779C4.15267 25.7223 4.42644 24.9585 5.12244 24.7779C4.86778 25.1563 4.74289 25.565 4.74289 25.9716C4.74289 27.2901 5.03222 27.5116 5.03222 28.4283C5.03222 28.8116 4.87667 29.2259 4.56822 29.5072V29.4921C4.772 29.561 4.90267 29.6883 4.97756 29.861C4.81254 29.918 4.64122 29.9549 4.46733 29.9708C5.03489 30.1561 5.33333 30.7108 5.33333 31.3965C5.33333 31.8763 5.264 32.1772 5.08956 32.6361L4.90533 33.121C4.77018 32.9656 4.63743 32.8082 4.50711 32.6488L4.66467 32.2232C4.75527 31.9835 4.80216 31.7295 4.80311 31.4732C4.80311 30.7983 4.31511 30.5625 4.038 30.5625C3.74822 30.5625 3.45378 30.8072 3.38467 31.1359C3.23731 30.9164 3.09432 30.6941 2.95578 30.469C2.95578 30.469 3.09422 30.6943 2.95578 30.469L2.95555 30.4688ZM4.25867 32.3385C4.25911 32.2896 4.25422 32.2359 4.24289 32.1772C4.414 32.1734 4.52511 32.063 4.61622 31.9172C4.50067 31.7514 4.37489 31.6721 4.24289 31.6492C4.28022 31.3992 4.14467 31.1621 3.91156 31.0292C3.97689 31.2523 4.00267 31.5899 3.756 31.6699C3.91889 31.8962 4.08648 32.1192 4.25867 32.3385C4.25867 32.3385 4.08644 32.1192 4.25867 32.3385ZM3.45422 8.76076C3.51782 8.82262 3.59739 8.86556 3.68401 8.88475C3.77063 8.90394 3.86089 8.89863 3.94467 8.86942C3.956 8.95165 3.95489 9.03876 3.92067 9.13342C4.09044 9.08276 4.16911 8.96253 4.11044 8.71631C4.20978 8.69453 4.28689 8.63076 4.35444 8.54809C4.28711 8.45076 4.20156 8.39031 4.11044 8.36431C4.15911 8.19676 4.09667 8.05698 4.00244 7.99454L3.95022 8.06431C3.95467 8.19098 3.93422 8.39498 3.76089 8.39498C3.74502 8.39508 3.72922 8.39283 3.714 8.38831C3.626 8.51148 3.53941 8.63563 3.45422 8.76076C3.53955 8.63565 3.45422 8.76076 3.45422 8.76076ZM1.50844 27.6336C1.67244 27.6865 1.74111 27.8228 1.74111 28.0225C1.74111 28.0699 1.73644 28.1101 1.72778 28.1439C1.79444 28.2928 1.86244 28.4408 1.93244 28.5879C2.01311 28.4805 2.06644 28.3256 2.06644 28.1145C2.06644 27.5885 1.806 27.1379 1.31467 27.1468C1.37733 27.3101 1.44178 27.4725 1.50844 27.6336ZM1.27556 27.0436C1.33667 26.9525 1.37022 26.8336 1.37956 26.7063C1.29956 26.7459 1.21311 26.7603 1.17333 26.7652C1.20667 26.8585 1.24089 26.9512 1.27556 27.0436ZM1.16378 26.739C1.232 26.5945 1.31711 26.4583 1.31333 26.1708C1.21711 26.2261 1.12667 26.3225 1.01178 26.2979C1.06067 26.4456 1.11156 26.5928 1.16378 26.739ZM0.982666 26.209C1.11511 25.7941 0.987111 25.2861 0.627111 24.989C0.732574 25.3993 0.851153 25.8062 0.982666 26.209C0.982666 26.209 0.851555 25.8076 0.982666 26.209ZM2.66667 21.0245C2.81733 20.5063 3.16178 20.1625 3.52933 19.999C3.50985 19.9909 3.49065 19.9822 3.47178 19.9728C3.07844 19.915 2.79667 19.5512 2.69356 19.3372C2.68317 19.3735 2.67086 19.4093 2.65667 19.4443C2.57889 19.6308 2.33333 19.9808 1.978 20.0914C2.27689 20.2772 2.54022 20.5892 2.66689 21.0243L2.66667 21.0245ZM2.66667 25.5608L2.67644 26.0452C2.85555 25.9056 3.12822 25.4336 3.12844 25.0074C3.12844 24.6928 2.98222 24.5292 2.84511 24.4565C3.41 24.5283 3.654 24.2454 3.77289 23.7219C3.45778 23.8572 2.96178 23.8701 2.97778 23.4159C2.97778 23.4159 3.00044 22.2068 3.00778 21.9005C3.136 22.1301 3.35556 22.1914 3.63444 22.1914C4.01689 22.1914 3.97511 22.519 3.91156 22.8036C4.11267 22.7125 4.31756 22.5485 4.24289 22.1608C4.414 22.1568 4.52511 22.0465 4.61622 21.9008C4.50067 21.735 4.37489 21.6556 4.24289 21.6328C4.28022 21.3828 4.14467 21.1456 3.91156 21.0128C3.98622 21.2672 4.00889 21.671 3.63444 21.671C3.47778 21.671 3.36933 21.5185 3.36933 21.2654C3.36933 20.8659 3.70667 20.5461 4.03822 20.5461C4.31511 20.5461 4.80311 20.7816 4.80311 21.4568C4.80216 21.713 4.75527 21.967 4.66467 22.2068C4.00166 23.9974 3.33566 25.7868 2.66667 27.5752L2.65667 27.5483C1.99111 25.7688 1.32851 23.9882 0.668888 22.2065C0.578284 21.9668 0.531394 21.7128 0.530444 21.4565C0.530444 20.7814 1.01844 20.5459 1.29556 20.5459C1.62667 20.5459 1.96422 20.8659 1.96422 21.2652C1.96422 21.5183 1.85578 21.6708 1.69911 21.6708C1.32467 21.6708 1.34733 21.267 1.422 21.0125C1.18889 21.1454 1.05333 21.3825 1.09067 21.6325C0.958666 21.6554 0.832888 21.7348 0.717333 21.9003C0.808444 22.0463 0.919555 22.1565 1.09067 22.1605C1.016 22.5483 1.22089 22.7123 1.422 22.8034C1.35844 22.5188 1.31667 22.1912 1.69911 22.1912C1.978 22.1912 2.19755 22.1299 2.32578 21.9003C2.33311 22.2065 2.35578 23.4156 2.35578 23.4156C2.37178 23.8699 1.87578 23.857 1.56067 23.7216C1.67956 24.245 1.92356 24.5281 2.48844 24.4563C2.35133 24.529 2.20511 24.6925 2.20511 25.0074C2.20511 25.4334 2.478 25.9052 2.65711 26.045L2.66667 25.5608Z" fill="#E5B731"/>
<path d="M38.2333 28.231C35.0956 35.171 28.1113 40.0001 20 40.0001C8.95422 40.0001 -4.76837e-07 31.0459 -4.76837e-07 20.0001C-4.76837e-07 14.0821 2.57044 8.76454 6.65556 5.10254C5.52089 7.61276 4.88889 10.3994 4.88889 13.3334C4.88889 24.3792 13.8431 33.3334 24.8889 33.3334C30.0164 33.3334 34.6933 31.4037 38.2333 28.231Z" fill="black" fill-opacity="0.12549"/>
</g>
<defs>
<clipPath id="clip0_110_431">
<rect width="40" height="40" fill="white"/>
</clipPath>
</defs>
</svg>
