<svg width="75" height="62" viewBox="0 0 75 62" fill="none" xmlns="http://www.w3.org/2000/svg">
<g clip-path="url(#clip0_5_48)">
<path d="M0.0979004 12.5244H12.6061V40.9393C12.6061 42.7736 11.1316 44.2623 9.3149 44.2623H0.0979004V12.5244Z" fill="white"/>
<path d="M26.6071 44.2426H16.0717L29.2331 1.76901C29.5787 0.654427 30.6013 -0.104675 31.7583 -0.104675H40.373C41.3393 -0.104675 42.0283 0.841465 41.7402 1.77339L29.1692 42.3416C28.8182 43.4725 27.7803 44.2426 26.6071 44.2426Z" fill="#ED2B47"/>
<path d="M59.1006 44.2426H48.4265C47.3226 44.2426 46.3324 43.5535 45.9391 42.5122L31.5297 -0.104675H40.5387C41.6383 -0.104675 42.6231 0.581141 43.0141 1.61807L59.1006 44.2437V44.2426Z" fill="#D1253E"/>
<path d="M62.3939 12.5244H74.9021V44.2623H65.7089C63.8792 44.2623 62.3928 42.7627 62.3928 40.9141V12.5233L62.3939 12.5244Z" fill="white"/>
<path d="M3.35223 -0.104675H12.6061V12.5244H0.0979004V3.18112C0.0979004 1.36759 1.55607 -0.104675 3.35223 -0.104675Z" fill="url(#paint0_linear_5_48)"/>
<path d="M62.3939 -0.104675H71.5958C73.4201 -0.104675 74.9021 1.39165 74.9021 3.23362V12.5244H62.3939V-0.104675Z" fill="url(#paint1_linear_5_48)"/>
<path d="M0.414246 61.5411L2.58741 56.0076H3.35766L5.49833 61.5411H4.65983L4.06399 60.012H1.74024L1.13574 61.5411H0.414246ZM1.96233 59.4246H3.8365L2.90049 57.0357L1.96233 59.4246Z" fill="white"/>
<path d="M8.52081 56.0076H9.29865V59.499C9.29865 60.0547 9.40048 60.4594 9.60415 60.712C9.80781 60.9647 10.1306 61.0916 10.5748 61.0916C11.019 61.0916 11.3158 60.9724 11.4967 60.735C11.6776 60.4965 11.7686 60.094 11.7686 59.5253V56.0076H12.4533V59.5143C12.4533 59.9978 12.4067 60.3697 12.3125 60.6289C12.2182 60.8881 12.0492 61.1167 11.8055 61.3125C11.4989 61.5564 11.0786 61.6789 10.5423 61.6789C9.84898 61.6789 9.33873 61.5018 9.01156 61.1485C8.6844 60.7941 8.52081 60.2428 8.52081 59.4924V56.0076Z" fill="white"/>
<path d="M17.3977 61.5411V56.5949H15.4542V56.0076H20.1201V56.5949H18.1766V61.5411H17.3987H17.3977Z" fill="white"/>
<path d="M25.4045 61.6789C24.6267 61.6789 24.0049 61.4153 23.5401 60.8881C23.0743 60.3609 22.8425 59.6565 22.8425 58.7738C22.8425 57.8911 23.0754 57.1867 23.5401 56.6595C24.0049 56.1323 24.6267 55.8687 25.4045 55.8687C26.1824 55.8687 26.8031 56.1323 27.269 56.6595C27.7337 57.1867 27.9666 57.8911 27.9666 58.7738C27.9666 59.6565 27.7337 60.3609 27.269 60.8881C26.8042 61.4153 26.1824 61.6789 25.4045 61.6789ZM25.4045 61.0916C25.9505 61.0916 26.3763 60.887 26.6818 60.4769C26.9884 60.0667 27.1411 59.4968 27.1411 58.7661C27.1411 58.0355 26.9884 57.4744 26.6818 57.0664C26.3752 56.6595 25.9495 56.4549 25.4045 56.4549C24.8596 56.4549 24.4328 56.6584 24.1273 57.0664C23.8207 57.4744 23.668 58.0399 23.668 58.7661C23.668 59.4924 23.8207 60.0667 24.1273 60.4769C24.4339 60.887 24.8596 61.0916 25.4045 61.0916Z" fill="white"/>
<path d="M36.0018 61.5411V56.0076H36.7796V61.5411H36.0018Z" fill="white"/>
<path d="M40.4651 61.5411V56.0076H41.5387L43.0597 60.2887L44.6218 56.0076H45.5871V61.5411H44.858V57.0467L43.3489 61.1714H42.5982L41.1335 57.0368V61.5422H40.4673L40.4651 61.5411Z" fill="white"/>
<path d="M49.2715 61.5411V56.0076H50.7632C51.1922 56.0076 51.5237 56.0426 51.7577 56.1137C51.9906 56.1848 52.1813 56.3095 52.3297 56.4888C52.5247 56.7262 52.6222 57.0489 52.6222 57.4569C52.6222 58.0453 52.425 58.5058 52.0296 58.8405C51.6342 59.1741 51.0861 59.3415 50.3851 59.3415H50.0406V61.54H49.2704L49.2715 61.5411ZM50.0417 58.7487H50.357C50.8185 58.7487 51.1749 58.6415 51.4273 58.4271C51.6786 58.2127 51.8054 57.9086 51.8054 57.5148C51.8054 57.1856 51.7057 56.9504 51.5075 56.8082C51.3092 56.666 50.9799 56.5949 50.5206 56.5949H50.0428V58.7487H50.0417Z" fill="white"/>
<path d="M57.9782 61.6789C57.2004 61.6789 56.5786 61.4153 56.1138 60.8881C55.648 60.3609 55.4161 59.6565 55.4161 58.7738C55.4161 57.8911 55.6491 57.1867 56.1138 56.6595C56.5786 56.1323 57.2004 55.8687 57.9782 55.8687C58.7561 55.8687 59.3768 56.1323 59.8426 56.6595C60.3074 57.1867 60.5403 57.8911 60.5403 58.7738C60.5403 59.6565 60.3074 60.3609 59.8426 60.8881C59.3779 61.4153 58.7561 61.6789 57.9782 61.6789ZM57.9782 61.0916C58.5242 61.0916 58.95 60.887 59.2555 60.4769C59.5621 60.0667 59.7148 59.4968 59.7148 58.7661C59.7148 58.0355 59.5621 57.4744 59.2555 57.0664C58.9489 56.6595 58.5231 56.4549 57.9782 56.4549C57.4333 56.4549 57.0065 56.6584 56.701 57.0664C56.3944 57.4744 56.2416 58.0399 56.2416 58.7661C56.2416 59.4924 56.3944 60.0667 56.701 60.4769C57.0076 60.887 57.4333 61.0916 57.9782 61.0916Z" fill="white"/>
<path d="M63.9041 61.5411V56.0076H65.5627C66.0881 56.0076 66.4911 56.1246 66.7717 56.3587C67.0523 56.5928 67.192 56.9329 67.192 57.3792C67.192 57.7303 67.0956 58.0431 66.9017 58.3177C66.7078 58.5922 66.4358 58.8022 66.0848 58.9499L67.9135 61.5411H66.958L65.3969 59.2004H64.6733V61.5411H63.903H63.9041ZM64.6744 58.6141H64.9268C65.4067 58.6141 65.7718 58.5157 66.0209 58.3188C66.2712 58.1219 66.3958 57.8342 66.3958 57.4547C66.3958 56.8815 65.9852 56.5949 65.164 56.5949H64.6744V58.6141Z" fill="white"/>
<path d="M72.2782 61.5411V56.5949H70.3347V56.0076H75.0006V56.5949H73.0571V61.5411H72.2793H72.2782Z" fill="white"/>
<path d="M3.77692 47.1281V54.019H0.120667V47.1281H3.77692Z" fill="#ED2B47"/>
<path d="M15.1162 50.9575H15.1844L15.9352 47.1281H19.4062L17.3587 54.019H12.8152L10.7579 47.1281H14.1997L15.1162 50.9575Z" fill="#ED2B47"/>
<path d="M32.5394 47.1281V49.1067H30.0434V49.6285H32.5101V51.4201H30.0434V51.9813H32.7344V54.019H26.3871V47.1281H32.5394Z" fill="#ED2B47"/>
<path d="M44.9219 47.1281C47.4277 47.1281 48.0712 47.8368 48.0712 48.9689C48.0712 49.9927 47.4472 50.5539 45.8189 50.731V50.7901C47.5642 50.859 47.9347 50.9968 47.9347 52.3258C47.9347 53.4185 47.9639 53.7532 48.3539 53.8911V54.019H45.0584C44.3662 54.019 44.1907 53.6548 44.1907 53.0543V52.5227C44.1907 52.0896 44.0639 51.9419 43.7617 51.9419H43.5862V54.019H39.9202V47.1281H44.9219ZM44.2004 49.3922C44.2004 48.9788 44.0152 48.8311 43.5862 48.8606V50.0616C44.0152 50.0616 44.2004 49.9041 44.2004 49.3922Z" fill="#ED2B47"/>
<path d="M58.9521 47.1281V54.019H55.2959V47.1281H58.9521Z" fill="#ED2B47"/>
<path d="M72.8167 47.1281L74.7472 54.019H71.2079L71.1202 53.2315H69.6284L69.5797 54.019H65.9137L67.7077 47.1281H72.8167ZM70.3012 49.2052H70.2134L69.9209 50.9476H70.6912L70.3012 49.2052Z" fill="#ED2B47"/>
<path d="M36.8662 23.993C41.3112 23.7895 44.7421 27.4319 44.3001 31.9099C43.9989 34.9649 41.6502 37.566 38.6505 38.1118C34.1449 38.9311 30.1507 35.6278 30.1972 30.9835C30.2352 27.2558 33.1753 24.1614 36.8662 23.993Z" fill="white"/>
<path d="M43.8581 32.0904C43.8332 32.0959 43.8212 32.0828 43.8071 32.0642C43.7746 32.0215 43.2633 31.2186 43.2297 31.1552C42.6697 30.1062 42.9502 29.6436 43.4843 28.6931C43.8938 29.7836 44.0195 30.9354 43.8581 32.0893V32.0904Z" fill="white"/>
<path d="M36.9421 24.4042C36.6615 24.775 37.3971 24.973 37.63 25.1929L37.851 25.0386C37.8467 25.0977 37.8293 25.2432 37.8423 25.2869C37.8607 25.3526 38.7577 26.1948 38.8195 26.2221C38.9625 26.2856 39.1976 25.9509 39.372 25.8623C39.1943 26.3567 38.8487 26.7504 38.5227 27.1486H38.5053C37.5314 26.29 38.1099 25.6588 37.4599 25.6041C37.24 25.2016 36.6106 24.7619 36.1686 24.6952C35.4092 24.5803 35.7829 25.1163 35.693 25.1929C35.1871 25.1305 34.679 25.136 34.172 25.1754C35.0842 24.7149 35.9151 24.4578 36.9421 24.4031V24.4042Z" fill="#131821"/>
<path d="M41.4791 25.9148C40.7944 25.7474 40.0426 25.5199 39.372 25.8634C39.3731 25.8502 39.3698 25.8338 39.372 25.8295C39.4879 25.6052 39.9071 25.3646 39.4738 24.7827C40.2549 25.0627 40.8356 25.3887 41.4791 25.9148Z" fill="#131821"/>
<path d="M38.7946 24.576C39.2788 25.3449 38.605 25.6413 38.6591 25.7168C38.9961 25.6665 39.0914 25.5188 39.3731 25.8284C39.3709 25.8328 39.3741 25.8492 39.3731 25.8623C39.1986 25.9509 38.9636 26.2856 38.8206 26.2221C38.7588 26.1948 37.8629 25.3526 37.8434 25.2869C37.8304 25.2421 37.8477 25.0977 37.8521 25.0386L37.6311 25.1929C37.3981 24.973 36.6626 24.775 36.9431 24.4042C37.6386 24.3671 38.1218 24.4119 38.7956 24.576H38.7946Z" fill="white"/>
<path d="M39.4738 24.7816C39.9071 25.3624 39.4879 25.6041 39.372 25.8284C39.0903 25.5188 38.996 25.6665 38.658 25.7168C38.605 25.6413 39.2788 25.3449 38.7935 24.576C39.0849 24.6471 39.1921 24.681 39.4727 24.7816H39.4738Z" fill="white"/>
<path d="M41.4791 25.9148C42.3977 26.6662 43.0629 27.5719 43.4843 28.6941C42.9492 29.6447 42.6697 30.1073 43.2297 31.1563C43.2633 31.2197 43.7747 32.0226 43.8072 32.0653C43.8212 32.0828 43.8332 32.0959 43.8581 32.0915C43.5201 34.5099 41.8615 36.5881 39.5843 37.4271C38.7447 37.7366 38.085 37.8121 37.1967 37.8045C37.4231 37.6415 37.6993 37.5529 37.9192 37.3757C38.1792 37.1657 38.5703 36.5772 38.7859 36.4492C38.9657 36.342 39.3027 36.307 39.4489 36.2436C39.8075 36.0883 40.165 35.4462 40.1542 35.0513C41.348 33.776 40.8247 33.6808 39.4662 33.2072C39.3254 33.0956 39.3904 32.727 38.956 32.47C38.6711 32.3004 38.3049 32.26 38.0048 32.4011C37.5249 31.7973 37.2595 31.7404 36.5521 31.7316C36.5467 31.7316 36.5412 31.7316 36.5347 31.7316C36.4611 31.4859 36.3874 31.2402 36.3137 30.9944C36.6647 30.9944 36.6864 30.7122 36.5434 30.5996C36.4827 30.5514 36.2585 30.5055 36.161 30.4628C36.1469 30.4563 36.1079 30.4519 36.0927 30.4453L36.0082 29.1754C36.0158 29.1262 36.603 28.5399 36.6799 28.4896C37.0591 28.2369 37.4025 28.3638 37.4957 28.3529C37.6181 28.3387 38.1478 28.016 38.7361 28.1472C38.9462 28.1943 39.4489 28.5738 39.5258 28.1899C39.6352 27.6517 38.8357 27.433 38.5237 27.1519C38.8498 26.7537 39.1954 26.36 39.3731 25.8656C40.0437 25.5221 40.7955 25.7496 41.4802 25.917L41.4791 25.9148Z" fill="#131821"/>
<path d="M35.2434 32.4328C35.2748 32.5126 35.3441 32.5782 35.3788 32.6559C35.4254 33.0223 35.0766 33.042 35.1578 33.7278C35.174 33.8678 35.355 34.5318 35.4124 34.6718C35.5315 34.9616 36.0559 35.6978 36.0916 35.9242C36.1068 36.0194 36.0873 36.1758 36.0743 36.2764C36.0689 36.3158 36.0461 36.3661 36.0407 36.3967C35.9606 36.8211 35.7439 37.2499 35.9053 37.683C30.5309 36.6002 28.791 29.6676 32.8806 26.069C32.3671 26.7975 32.0963 27.1934 31.9457 28.1024C31.8417 28.7346 31.8417 29.1995 32.1667 29.7661C32.3054 30.0078 33.081 31.0021 33.314 31.0611C34.0149 30.9167 34.6367 32.1243 35.03 32.3649C35.0917 32.4032 35.1719 32.4251 35.2423 32.4339L35.2434 32.4328Z" fill="#131821"/>
<path d="M36.0927 30.4431C35.2705 30.0778 35.4384 29.73 35.9909 29.1732H36.0082L36.0927 30.4431Z" fill="#131821"/>
<path d="M37.1977 37.8033C36.9702 37.8012 36.7655 37.8088 36.5347 37.7858C36.4426 37.3013 36.2856 36.8255 36.0418 36.3967C36.0472 36.3661 36.0711 36.3158 36.0754 36.2764C36.3506 36.4481 36.5358 36.307 36.5336 36.1987C36.5336 36.1681 36.3083 35.7995 36.2444 35.6496C35.7991 34.604 35.5294 32.9917 35.3777 32.6559C35.3431 32.5782 35.2737 32.5126 35.2423 32.4328C35.7547 32.4973 36.5586 32.3956 36.551 31.7294C37.2584 31.7382 37.5238 31.7951 38.0037 32.3988C38.3049 32.2577 38.67 32.2982 38.9549 32.4678C39.3882 32.7248 39.3232 33.0945 39.4651 33.205C40.8236 33.6786 41.3469 33.7738 40.1531 35.0491C40.1639 35.444 39.8064 36.0861 39.4478 36.2414C39.3016 36.3048 38.9646 36.3398 38.7848 36.447C38.5692 36.575 38.1781 37.1635 37.9181 37.3735C37.6982 37.5507 37.4231 37.6393 37.1956 37.8022L37.1977 37.8033Z" fill="white"/>
<path d="M36.5347 37.7859C36.3191 37.7651 36.1187 37.7257 35.9064 37.683C35.7461 37.2488 35.9616 36.8211 36.0418 36.3967C36.2856 36.8255 36.4426 37.3024 36.5347 37.7859Z" fill="white"/>
<path d="M36.2802 30.9922C36.291 30.9922 36.3029 30.9922 36.3138 30.9922C36.3874 31.238 36.4611 31.4837 36.5348 31.7294C36.3907 31.7294 36.0386 31.7174 35.966 31.7294C35.8544 31.748 35.6248 31.9613 35.4395 31.8498C35.2499 31.736 35.5457 31.5293 35.4135 31.3608C35.303 31.2197 34.7906 31.3783 34.7343 31.0524C34.6703 30.687 35.1188 30.8599 35.1589 30.6061C35.1784 30.4814 35.0863 30.3064 34.9639 30.2714C34.8253 30.232 33.8654 30.4759 33.7062 30.3742C33.5307 30.2616 33.6238 29.7945 33.8589 29.6195C34.1341 29.4139 34.5436 29.4893 34.8101 29.6709C35.3236 30.0198 35.3052 30.7833 35.3875 30.838C35.6215 30.8642 36.1133 30.9857 36.2791 30.9922H36.2802Z" fill="#131821"/>
<path d="M36.0765 36.2764C36.0895 36.1769 36.109 36.0194 36.0938 35.9242C36.057 35.6978 35.5337 34.9617 35.4145 34.6718C35.3571 34.5329 35.1762 33.8678 35.16 33.7278C35.0787 33.042 35.4275 33.0212 35.381 32.6559C35.5326 32.9917 35.8024 34.604 36.2476 35.6497C36.3115 35.7995 36.5358 36.167 36.5369 36.1988C36.538 36.307 36.3527 36.447 36.0786 36.2764H36.0765Z" fill="white"/>
<path d="M36.0083 29.1743H35.9909C35.8815 28.7248 35.7353 28.121 36.1859 27.8016C36.7341 27.4144 37.5098 27.9766 38.0384 27.6124C38.1359 27.5446 38.3992 27.2634 38.5053 27.1497H38.5227C38.8347 27.4308 39.6342 27.6496 39.5248 28.1877C39.4468 28.5705 38.9452 28.1921 38.735 28.1451C38.1468 28.0138 37.617 28.3365 37.4946 28.3507C37.4014 28.3616 37.0591 28.2358 36.6788 28.4874C36.6019 28.5388 36.0158 29.124 36.0072 29.1732L36.0083 29.1743Z" fill="white"/>
<path d="M36.3138 30.9922C36.3029 30.9922 36.291 30.9922 36.2802 30.9922L36.161 30.4606C36.2585 30.5044 36.4828 30.5492 36.5434 30.5974C36.6864 30.71 36.6648 30.9911 36.3138 30.9922Z" fill="white"/>
<path d="M38.5053 27.1497C38.3981 27.2635 38.1359 27.5457 38.0384 27.6124C37.5098 27.9755 36.7341 27.4144 36.1859 27.8016C35.7353 28.1199 35.8804 28.7248 35.9909 29.1743C35.4384 29.7311 35.2705 30.0778 36.0928 30.4442C36.1068 30.4508 36.1458 30.4552 36.161 30.4617L36.2802 30.9933C36.1144 30.9868 35.6226 30.8654 35.3886 30.8391C35.3063 30.7844 35.3236 30.0209 34.8112 29.672C34.5447 29.4904 34.1352 29.415 33.86 29.6206C33.6249 29.7956 33.5318 30.2627 33.7073 30.3753C33.8654 30.4771 34.8263 30.2331 34.965 30.2725C35.0874 30.3075 35.1806 30.4825 35.16 30.6072C35.1199 30.861 34.6714 30.6871 34.7353 31.0535C34.7928 31.3794 35.3041 31.2208 35.4146 31.3619C35.5468 31.5304 35.2499 31.7371 35.4406 31.8509C35.6269 31.9624 35.8555 31.7491 35.9671 31.7306C36.0397 31.7185 36.3928 31.7306 36.5358 31.7306C36.5413 31.7306 36.5467 31.7306 36.5532 31.7306C36.5608 32.3967 35.758 32.4984 35.2445 32.4339C35.1741 32.4251 35.0939 32.4032 35.0322 32.365C34.6389 32.1243 34.0171 30.9168 33.3162 31.0611C33.0843 31.0021 32.3076 30.0078 32.1689 29.7661C31.8439 29.1995 31.8439 28.7335 31.9479 28.1024C32.0974 27.1934 32.3693 26.7975 32.8828 26.069C33.2598 25.6468 33.6856 25.4237 34.1742 25.1765C34.6812 25.1371 35.1893 25.1316 35.6952 25.194C35.7851 25.1174 35.4113 24.5825 36.1708 24.6963C36.6128 24.763 37.2422 25.2027 37.4621 25.6052C38.111 25.6588 37.5336 26.2911 38.5075 27.1497H38.5053Z" fill="white"/>
<path d="M36.2033 26.2746C36.3993 26.2232 36.5467 26.36 36.4838 26.4715C36.4568 26.5197 36.0527 26.5962 36.0928 26.3862C36.0982 26.3567 36.1729 26.2823 36.2033 26.2746Z" fill="white"/>
</g>
<defs>
<linearGradient id="paint0_linear_5_48" x1="0.574567" y1="13.0057" x2="13.2031" y2="0.498095" gradientUnits="userSpaceOnUse">
<stop offset="0.5" stop-color="white"/>
</linearGradient>
<linearGradient id="paint1_linear_5_48" x1="62.3939" y1="12.5244" x2="74.0446" y2="0.985275" gradientUnits="userSpaceOnUse">
<stop offset="0.5" stop-color="white"/>
</linearGradient>
<clipPath id="clip0_5_48">
<rect width="75" height="61.8421" fill="white"/>
</clipPath>
</defs>
</svg>
