<svg width="70" height="70" viewBox="0 0 70 70" fill="none" xmlns="http://www.w3.org/2000/svg">
<mask id="mask0_110_209" style="mask-type:luminance" maskUnits="userSpaceOnUse" x="0" y="0" width="70" height="70">
<path d="M70 34.9995C70 54.3301 54.3294 70.0002 35.0002 70.0002C15.6701 70.0002 0 54.3301 0 34.9997C0 15.6701 15.6702 0 35 0C54.3293 0 69.9998 15.6701 69.9998 34.9993L70 34.9995Z" fill="white"/>
</mask>
<g mask="url(#mask0_110_209)">
<path d="M-6.3252 -7.70557H76.3245V74.9443H-6.3252V-7.70557Z" fill="#B7E1E1"/>
</g>
<mask id="mask1_110_209" style="mask-type:luminance" maskUnits="userSpaceOnUse" x="0" y="0" width="70" height="70">
<path d="M70 34.9995C70 54.3301 54.3294 70.0002 35.0002 70.0002C15.6701 70.0002 0 54.3301 0 34.9997C0 15.6701 15.6702 0 35 0C54.3293 0 69.9998 15.6701 69.9998 34.9993L70 34.9995Z" fill="white"/>
</mask>
<g mask="url(#mask1_110_209)">
<path d="M34.5525 10.0833V3.30029C48.5672 3.30029 48.8063 12.6829 48.8063 12.6829V14.5836L47.0874 24.8524C46.8142 24.7933 46.5522 24.8524 46.5522 24.8524H45.2861V17.6262C45.2861 10.4008 39.199 10.0833 39.199 10.0833H34.5525Z" fill="#9A9079"/>
<path d="M53.6133 58.9528L53.0057 59.5862C53.0057 59.5862 46.8652 55.5933 39.2975 55.5933H43.9887C47.4954 55.5933 51.7107 57.8277 53.6133 58.9528Z" fill="#55441F"/>
<path d="M39.2975 55.5934C46.8653 55.5934 53.0057 59.5861 53.0057 59.5861L53.6133 58.9529C54.2551 59.3334 54.6351 59.5863 54.6351 59.5863L46.8108 47.3647C47.3658 47.4763 48.0243 47.5446 48.8063 47.5446H54.3955C54.3955 47.5446 61.7525 47.6709 61.7525 52.8694V70.8915H34.5527V59.5861H35.6217L39.2975 55.5934Z" fill="#786845"/>
<path d="M34.5525 59.5858V58.9523L45.4495 46.8994C45.8152 47.0878 46.2624 47.2487 46.8108 47.3643L54.6351 59.5858C54.6351 59.5858 54.2551 59.3331 53.6133 58.9523C51.7107 57.8274 47.4954 55.5929 43.9889 55.5929H39.2977L35.6217 59.5857L34.5525 59.5858Z" fill="#D2CBBE"/>
<path d="M43.8846 36.6763V44.1223C43.8846 44.1223 43.5327 45.9091 45.4495 46.9001L34.5522 58.9531V43.8972H34.6308C39.5162 43.8972 41.0226 42.2962 41.0226 42.2962L43.8846 36.6763Z" fill="#F7E2A7"/>
<path d="M43.8846 34.998V36.6756L41.0224 42.2955C41.0224 42.2955 39.5162 43.8965 34.6308 43.8965H34.5522V42.8525H35.3966C39.9582 42.8525 40.7183 40.8254 41.5351 39.4724C42.0245 38.6564 43.1042 36.5402 43.8846 34.998Z" fill="#DBBD79"/>
<path d="M34.5525 42.8528V10.0835H39.199C39.199 10.0835 45.2861 10.4011 45.2861 17.6263V24.8525H46.5522C46.5522 24.8525 46.8142 24.7934 47.0874 24.8525V24.8556C47.4638 24.94 47.858 25.2641 47.5629 26.3272C47.0557 28.149 46.6786 29.9937 46.6786 29.9937C46.6786 29.9937 46.299 31.6981 44.7744 31.6981V33.2199C44.7744 33.2199 44.3934 33.9877 43.8847 34.9983C43.1043 36.5404 42.0246 38.6567 41.5352 39.4727C40.7184 40.8257 39.9582 42.8528 35.3966 42.8528H34.5525Z" fill="#F7E2A7"/>
<path d="M7.34972 70.8912V52.869C7.34972 47.6706 14.7037 47.5442 14.7037 47.5442H20.2976C21.077 47.5442 21.7333 47.4759 22.2878 47.3608V47.3644L14.467 59.586C14.467 59.586 14.8468 59.3332 15.4879 58.9524L16.2424 59.586C16.2424 59.586 21.2543 55.978 27.6126 55.5931H29.804L33.483 59.5858H34.5524V70.8912H7.34972Z" fill="#615128"/>
<path d="M21.5395 26.327C21.2435 25.2641 21.6375 24.94 22.0147 24.8556V24.8525C22.288 24.7934 22.5498 24.8525 22.5498 24.8525H23.8161V17.6263C23.8161 10.401 29.9058 10.0835 29.9058 10.0835H34.5523V42.8528H33.7052C29.1431 42.8528 28.3835 40.8257 27.5677 39.4727C27.0776 38.6567 25.9972 36.5404 25.2175 34.9983C24.7077 33.9877 24.3282 33.2199 24.3282 33.2199V31.6979C22.8025 31.6979 22.4231 29.9939 22.4231 29.9939C22.4231 29.9939 22.0421 28.1489 21.5395 26.327Z" fill="#F5DC93"/>
<path d="M34.5524 3.30029V10.0833H29.9057C29.9057 10.0833 23.8159 10.401 23.8159 17.6262V24.8524H22.5497C22.5497 24.8524 22.2878 24.7933 22.0147 24.8524L20.2975 14.5836V12.6829C20.2975 12.6829 20.5342 3.30029 34.5524 3.30029Z" fill="#80765A"/>
<path d="M34.5526 58.9528L23.6555 46.9034C25.5687 45.9088 25.2176 44.122 25.2176 44.122V36.5156L28.1558 42.2959C28.1558 42.2959 29.6638 43.8969 34.5526 43.8969V58.9528Z" fill="#F5DC93"/>
<path d="M25.2175 36.5152V34.998C25.9973 36.5402 27.0776 38.6564 27.5677 39.4724C28.3835 40.8254 29.1432 42.8525 33.7053 42.8525H34.5523V43.8965C29.6637 43.8965 28.1557 42.2955 28.1557 42.2955L25.2175 36.5152Z" fill="#D4B05B"/>
<path d="M34.5525 58.9523V59.5857H33.4831L29.8041 55.5928C29.0616 55.5448 28.3269 55.548 27.6127 55.5928H25.1139C21.607 55.5928 17.3909 57.8272 15.4881 58.9523C14.847 59.3328 14.4672 59.5857 14.4672 59.5857L22.2882 47.3641V47.3605C22.8371 47.2507 23.2864 47.0907 23.6531 46.9028H23.6556L34.5525 58.9523Z" fill="#B0A48D"/>
<path d="M27.6127 55.5933C21.2543 55.9782 16.2424 59.586 16.2424 59.586L15.4879 58.9528C17.3907 57.8277 21.6068 55.5933 25.1137 55.5933H27.6127Z" fill="#3C3018"/>
</g>
</svg>
