<svg width="25" height="17" viewBox="0 0 25 17" fill="none" xmlns="http://www.w3.org/2000/svg">
<g clip-path="url(#clip0_148_657)">
<path d="M16.7823 0.520261C16.3337 0.292007 15.7848 0.470855 15.5567 0.919707L8.77708 14.2541C8.54888 14.7029 8.72773 15.2516 9.17652 15.4798C9.30423 15.545 9.44555 15.5789 9.58891 15.579C9.92109 15.579 10.2413 15.3968 10.4022 15.0804L17.1818 1.74594C17.41 1.29715 17.2311 0.748455 16.7823 0.520261ZM11.9144 4.91137C11.9144 3.00505 10.3634 1.45412 8.45712 1.45412C6.55093 1.45412 5 3.00505 5 4.91137C5 6.81762 6.55093 8.36855 8.45718 8.36855C10.3635 8.36855 11.9144 6.81762 11.9144 4.91137ZM8.45718 6.54543C7.5562 6.54543 6.82312 5.81235 6.82312 4.91137C6.82312 4.01032 7.5562 3.27724 8.45718 3.27724C9.35823 3.27724 10.0913 4.01026 10.0913 4.91137C10.0912 5.81235 9.35823 6.54543 8.45718 6.54543ZM17.5428 7.63158C15.6365 7.63158 14.0856 9.18251 14.0856 11.0888C14.0856 12.995 15.6364 14.5459 17.5428 14.5459C19.4491 14.5459 21 12.9951 21 11.0888C21 9.18245 19.4491 7.63158 17.5428 7.63158ZM17.5428 12.7228C16.6418 12.7228 15.9087 11.9897 15.9087 11.0887C15.9087 10.1877 16.6418 9.45464 17.5428 9.45464C18.4438 9.45464 19.1769 10.1877 19.1769 11.0887C19.1769 11.9897 18.4439 12.7228 17.5428 12.7228Z" fill="#606060"/>
</g>
<defs>
<clipPath id="clip0_148_657">
<rect width="25" height="16" fill="white" transform="translate(0 0.5)"/>
</clipPath>
</defs>
</svg>
