<svg width="22" height="22" viewBox="0 0 22 22" fill="none" xmlns="http://www.w3.org/2000/svg">
<path d="M7.00877 2.75H4.48684C3.52761 2.75 2.75 3.52761 2.75 4.48684C2.75 12.6403 9.35969 19.25 17.5132 19.25C18.4724 19.25 19.25 18.4724 19.25 17.5132V14.9912C19.25 14.2416 18.7936 13.5674 18.0975 13.289L15.6815 12.3226C15.0563 12.0725 14.3443 12.1853 13.827 12.6164L13.2028 13.1365C12.4744 13.7435 11.4033 13.695 10.7328 13.0245L8.97552 11.2672C8.30504 10.5967 8.25645 9.52559 8.86348 8.79716L9.38359 8.17303C9.81468 7.65571 9.92748 6.9437 9.67739 6.31847L8.71098 3.90245C8.43256 3.20641 7.75843 2.75 7.00877 2.75Z" stroke="white" stroke-width="1.5" stroke-linecap="round" stroke-linejoin="round"/>
</svg>
