<svg width="40" height="40" viewBox="0 0 40 40" fill="none" xmlns="http://www.w3.org/2000/svg">
<g clip-path="url(#clip0_110_354)">
<path d="M20.0009 39.9998C31.0461 39.9998 40 31.0459 40 20.0006C40 8.95539 31.0461 0.00146484 20.0009 0.00146484C8.95564 0.00146484 0.00170898 8.95539 0.00170898 20.0006C0.00170898 31.0459 8.95564 39.9998 20.0009 39.9998Z" fill="white"/>
<path d="M38.8568 13.3315H26.5342C27.0695 17.6039 27.0726 22.3114 26.5446 26.589H38.8831C39.6229 24.4711 40.0003 22.2435 39.9994 20.0001C39.9997 17.6607 39.5946 15.4173 38.8568 13.3315Z" fill="#2B479D"/>
<path d="M26.5342 13.3316H38.8566C38.8549 13.3256 38.8528 13.3198 38.8503 13.3142C36.2908 6.09689 29.7065 0.786895 21.7957 0.0820312C24.8574 1.76013 25.7516 7.0768 26.5342 13.3316Z" fill="#EFECEC"/>
<path d="M21.7964 39.9168C29.7214 39.2106 36.3148 33.8823 38.8644 26.6457C38.8711 26.6264 38.8768 26.6074 38.8837 26.5889H26.5449C25.7684 32.8775 24.8703 38.2317 21.7964 39.9168Z" fill="#E63026"/>
<path d="M0 20.0001C0 22.3095 0.396639 24.5253 1.11628 26.589H27.5741C28.1027 22.311 28.0989 17.6039 27.5643 13.3315H1.14288C0.405168 15.4174 0 17.6608 0 20.0001Z" fill="#3757A6"/>
<path d="M1.14916 13.3142C1.14723 13.3201 1.14512 13.3259 1.14282 13.3316H27.5643C26.7811 7.07676 24.8573 1.76018 21.7961 0.0820807C21.204 0.0296403 20.6052 9.62494e-10 19.9996 9.62494e-10C11.2993 -8.44442e-05 3.90063 5.55649 1.14916 13.3142Z" fill="#EFEFEF"/>
<path d="M27.5741 26.5889H1.11627C1.12294 26.6075 1.12919 26.6264 1.13553 26.6457C3.87603 34.4233 11.2853 39.9995 19.9996 39.9995C20.6053 39.9995 21.204 39.9698 21.7961 39.9168C24.8703 38.2318 26.7975 32.8776 27.5741 26.5889Z" fill="#E73B36"/>
</g>
<defs>
<clipPath id="clip0_110_354">
<rect width="40" height="40" fill="white"/>
</clipPath>
</defs>
</svg>
