<svg width="20" height="20" viewBox="0 0 20 20" fill="none" xmlns="http://www.w3.org/2000/svg">
<path d="M19.6084 1.63826C19.4501 1.49342 19.2561 1.39332 19.0463 1.34826C18.8366 1.30319 18.6186 1.31477 18.4148 1.38181L0.829345 7.17873C0.350087 7.3367 0.025087 7.76451 0.00137607 8.26853C-0.0222958 8.77259 0.261103 9.22904 0.723368 9.43134L5.07239 11.3342L6.38454 17.4199C6.43903 17.6727 6.56735 17.8979 6.83919 17.9672C7.11415 18.0372 7.30841 17.8869 7.51356 17.7333L10.7409 15.3167L14.5139 18.4042C14.7337 18.5841 15.0023 18.6779 15.2761 18.6779C15.4088 18.6778 15.5406 18.656 15.6662 18.6132C16.0633 18.4786 16.3577 18.1545 16.4537 17.7463L19.968 2.80482C20.017 2.59596 20.0095 2.37781 19.9463 2.1728C19.8831 1.96778 19.7665 1.78329 19.6084 1.63826ZM7.7947 12.4245C7.79255 12.4296 7.79044 12.4353 7.78845 12.4422L7.06095 14.9839L6.24907 11.2185L11.8318 8.11673L7.9286 12.1979C7.86739 12.2623 7.82161 12.3398 7.7947 12.4245ZM8.02559 15.8825L8.35602 14.728L8.67208 13.6238L9.80454 14.5505L8.02559 15.8825ZM18.8245 2.53584L15.3103 17.4773C15.3085 17.4847 15.3062 17.495 15.289 17.5008C15.272 17.5066 15.2637 17.5 15.2578 17.4951L11.1293 14.1167L11.129 14.1164L9.2161 12.5511L15.3615 6.12541C15.4587 6.02385 15.5161 5.89083 15.5236 5.7505C15.531 5.61017 15.4878 5.47184 15.402 5.3606C15.3161 5.24935 15.1932 5.17259 15.0555 5.14424C14.9179 5.11589 14.7746 5.13784 14.6518 5.20611L5.55216 10.2619L1.19423 8.35517C1.18095 8.34939 1.17364 8.34615 1.1747 8.32369C1.17575 8.3013 1.18333 8.29877 1.19708 8.29423L18.7825 2.49736C18.7911 2.49459 18.8007 2.49138 18.8148 2.50427C18.829 2.51724 18.8266 2.52709 18.8245 2.53584Z" fill="#E3E3E3"/>
</svg>
