<svg width="25" height="20" viewBox="0 0 25 20" fill="none" xmlns="http://www.w3.org/2000/svg">
<path d="M12.1667 0.833313C10.3537 0.833313 8.58139 1.37093 7.07394 2.37817C5.56649 3.38542 4.39158 4.81706 3.69778 6.49205C3.00397 8.16704 2.82244 10.0101 3.17614 11.7883C3.52984 13.5665 4.40288 15.1998 5.68486 16.4818C6.96684 17.7638 8.60018 18.6368 10.3783 18.9905C12.1565 19.3442 13.9996 19.1627 15.6746 18.4689C17.3496 17.7751 18.7812 16.6002 19.7885 15.0927C20.7957 13.5853 21.3333 11.813 21.3333 9.99998C21.3305 7.56971 20.3638 5.2398 18.6453 3.52133C16.9269 1.80287 14.5969 0.83618 12.1667 0.833313ZM12.1667 17.5C10.6833 17.5 9.23326 17.0601 7.99989 16.236C6.76653 15.4119 5.80523 14.2406 5.23757 12.8701C4.66992 11.4997 4.52139 9.99166 4.81078 8.5368C5.10017 7.08195 5.81448 5.74557 6.86337 4.69668C7.91226 3.64778 9.24864 2.93348 10.7035 2.64409C12.1584 2.3547 13.6664 2.50323 15.0368 3.07088C16.4072 3.63854 17.5786 4.59983 18.4027 5.8332C19.2268 7.06657 19.6667 8.51662 19.6667 9.99998C19.6642 11.9884 18.8733 13.8946 17.4673 15.3006C16.0613 16.7066 14.155 17.4976 12.1667 17.5Z" fill="#606060"/>
<path d="M13 9.65496V4.99996C13 4.77895 12.9122 4.56698 12.7559 4.4107C12.5996 4.25442 12.3877 4.16663 12.1666 4.16663C11.9456 4.16663 11.7337 4.25442 11.5774 4.4107C11.4211 4.56698 11.3333 4.77895 11.3333 4.99996V9.99996C11.3334 10.221 11.4212 10.4329 11.5775 10.5891L14.0775 13.0891C14.2346 13.2409 14.4451 13.3249 14.6636 13.323C14.8821 13.3211 15.0912 13.2335 15.2457 13.079C15.4002 12.9245 15.4878 12.7155 15.4897 12.497C15.4916 12.2785 15.4076 12.068 15.2558 11.9108L13 9.65496Z" fill="#606060"/>
</svg>
