<svg width="40" height="40" viewBox="0 0 40 40" fill="none" xmlns="http://www.w3.org/2000/svg">
<g clip-path="url(#clip0_110_456)">
<path d="M20 40C31.0457 40 40 31.0457 40 20C40 8.9543 31.0457 0 20 0C8.9543 0 0 8.9543 0 20C0 31.0457 8.9543 40 20 40Z" fill="#6FC2E5"/>
<path d="M40 19.9932V20.0002C40 31.0455 31.0453 40.0002 20 40.0002C14.6957 40.0002 9.60859 37.8931 5.85786 34.1423C2.10714 30.3916 0 25.3045 0 20.0002V19.9932H40Z" fill="#F6C752"/>
<path d="M40 19.993V20H0V19.993C0.00186438 14.6899 2.10982 9.60459 5.86035 5.85538C9.61088 2.10617 14.6969 -3.27722e-07 20 0C31.043 0 40 8.95 40 19.993Z" fill="#3586CB"/>
<path d="M22.4813 39.8439C19.6674 40.1958 16.8109 39.9452 14.1012 39.1088C11.3916 38.2724 8.89083 36.8694 6.76481 34.9928C4.63879 33.1162 2.93614 30.8089 1.76984 28.2241C0.603535 25.6393 0.000246443 22.836 0 20.0002L0 19.9932H4.96484V20.0002C4.9652 24.8741 6.74533 29.5802 9.97079 33.2342C13.1963 36.8883 17.645 39.2387 22.4813 39.8439Z" fill="#F7BB38"/>
<path d="M22.4813 0.156099C17.6441 0.759091 13.1939 3.10887 9.96805 6.76338C6.74216 10.4179 4.96284 15.1252 4.96484 19.9998H0V19.9928C0.00287148 17.1581 0.607985 14.3564 1.77526 11.7732C2.94254 9.19003 4.64534 6.88432 6.77087 5.00882C8.89641 3.13332 11.3962 1.73082 14.1046 0.894229C16.813 0.0576352 19.6683 -0.193963 22.4813 0.156099Z" fill="#366FCA"/>
<path d="M34.5656 30.2347C35.2681 30.2347 35.8375 29.6652 35.8375 28.9628C35.8375 28.2604 35.2681 27.6909 34.5656 27.6909C33.8632 27.6909 33.2938 28.2604 33.2938 28.9628C33.2938 29.6652 33.8632 30.2347 34.5656 30.2347Z" fill="#F6D372"/>
<path d="M36.4391 27.99C36.9365 27.99 37.3398 27.5867 37.3398 27.0893C37.3398 26.5918 36.9365 26.1885 36.4391 26.1885C35.9416 26.1885 35.5383 26.5918 35.5383 27.0893C35.5383 27.5867 35.9416 27.99 36.4391 27.99Z" fill="#F6D372"/>
</g>
<defs>
<clipPath id="clip0_110_456">
<rect width="40" height="40" fill="white"/>
</clipPath>
</defs>
</svg>
