<svg width="25" height="20" viewBox="0 0 25 20" fill="none" xmlns="http://www.w3.org/2000/svg">
<path d="M20.4583 1.04163H5.45833C4.65833 1.04163 4 1.69996 4 2.49996V4.16663C4 4.96663 4.65833 5.62496 5.45833 5.62496H5.66667V15.8333C5.66667 17.5583 7.06667 18.9583 8.79167 18.9583H17.125C18.85 18.9583 20.25 17.5583 20.25 15.8333V5.62496H20.4583C21.2583 5.62496 21.9167 4.96663 21.9167 4.16663V2.49996C21.9167 1.69996 21.2583 1.04163 20.4583 1.04163ZM19 15.8333C19 16.8666 18.1583 17.7083 17.125 17.7083H8.79167C7.75833 17.7083 6.91667 16.8666 6.91667 15.8333V5.62496H19V15.8333ZM20.6667 4.16663C20.6667 4.28329 20.575 4.37496 20.4583 4.37496H5.45833C5.34167 4.37496 5.25 4.28329 5.25 4.16663V2.49996C5.25 2.38329 5.34167 2.29163 5.45833 2.29163H20.4583C20.575 2.29163 20.6667 2.38329 20.6667 2.49996V4.16663ZM10.4333 13.3583C10.1917 13.1166 10.1917 12.7166 10.4333 12.475C10.675 12.2333 11.075 12.2333 11.3167 12.475L12.3333 13.4916V8.33329C12.3333 7.99163 12.6167 7.70829 12.9583 7.70829C13.3 7.70829 13.5833 7.99163 13.5833 8.33329V13.4916L14.6 12.475C14.8417 12.2333 15.2417 12.2333 15.4833 12.475C15.725 12.7166 15.725 13.1166 15.4833 13.3583L13.4 15.4416C13.275 15.5666 13.1167 15.625 12.9583 15.625C12.8 15.625 12.6417 15.5666 12.5167 15.4416L10.4333 13.3583Z" fill="#606060"/>
</svg>
