<svg width="22" height="22" viewBox="0 0 22 22" fill="none" xmlns="http://www.w3.org/2000/svg">
<g clip-path="url(#clip0_110_877)">
<path d="M16.506 13.2449L15.3401 12.079C15.1836 11.9221 14.9944 11.8016 14.7861 11.7261C14.5778 11.6505 14.3554 11.6217 14.1347 11.6418C13.9139 11.6613 13.7002 11.7292 13.5087 11.8406C13.3171 11.952 13.1524 12.1042 13.0263 12.2864L12.6202 12.8717C12.0679 12.7733 10.9994 12.4948 10.2525 11.7479C9.5053 11.0007 9.22686 9.9317 9.12864 9.38019L9.71404 8.97401C9.89626 8.84789 10.0485 8.68319 10.1599 8.49162C10.2713 8.30005 10.3392 8.0863 10.3587 7.86555C10.3787 7.64487 10.3499 7.42248 10.2744 7.21418C10.1988 7.00587 10.0783 6.81676 9.92141 6.66027L8.7555 5.49436C8.28696 5.02587 7.58077 4.91406 6.99812 5.21596C5.97649 5.74525 5.3054 6.7374 5.10826 8.00962C4.78716 10.0824 5.7454 12.5277 7.609 14.3913C9.23434 16.0167 11.302 16.9533 13.1792 16.9533C13.4545 16.9533 13.7257 16.9332 13.9907 16.8921C15.263 16.6951 16.2551 16.0239 16.7844 15.0023C17.0862 14.4196 16.9744 13.7134 16.506 13.2449ZM15.5981 14.3877C15.1775 15.1995 14.3806 15.4797 13.7862 15.5718C12.1519 15.8249 10.098 14.9908 8.55371 13.4466C7.00955 11.9024 6.17535 9.84855 6.42852 8.21415C6.52056 7.61972 6.8008 6.82291 7.61266 6.40224C7.63463 6.39103 7.65897 6.38524 7.68364 6.38536C7.72901 6.38536 7.77559 6.40405 7.81065 6.43907L8.97661 7.60503C9.02504 7.65354 9.03123 7.70862 9.02783 7.74631C9.02444 7.78403 9.00862 7.83714 8.95225 7.87624L8.0313 8.51528C7.93661 8.58099 7.86052 8.67008 7.81045 8.77389C7.76038 8.87771 7.73803 8.99272 7.74556 9.10773C7.75136 9.19607 7.9033 11.2881 9.30769 12.6925C10.7121 14.097 12.8041 14.249 12.8925 14.2547C13.0075 14.2621 13.1225 14.2397 13.2263 14.1897C13.3301 14.1396 13.4192 14.0636 13.485 13.9689L14.124 13.048C14.1631 12.9917 14.2162 12.9758 14.2539 12.9724C14.2917 12.9689 14.3467 12.9752 14.3953 13.0237L15.5612 14.1896C15.6154 14.2437 15.6305 14.3252 15.5981 14.3877Z" fill="#E3E3E3"/>
<path d="M18.778 3.22197C16.7003 1.14421 13.938 0 10.9996 0C8.06121 0 5.29883 1.14421 3.22112 3.22193C1.45523 4.98781 0.334179 7.32493 0.0643353 9.80276C-0.19077 12.1452 0.318323 14.5295 1.49945 16.5506L0.353128 20.8287C0.322812 20.9419 0.322835 21.0612 0.353197 21.1744C0.383558 21.2877 0.443188 21.391 0.526097 21.4739C0.609005 21.5568 0.712273 21.6164 0.825525 21.6468C0.938778 21.6772 1.05803 21.6772 1.1713 21.6469L5.44935 20.5006C7.1296 21.4825 9.061 22 11.0105 22C11.406 22 11.8022 21.9787 12.1972 21.9357C14.675 21.6659 17.0122 20.5448 18.778 18.7788C20.8558 16.7012 22 13.9387 22 11.0004C22 8.06214 20.8558 5.29968 18.778 3.22197ZM17.8333 17.8341C14.6394 21.028 9.73368 21.5955 5.90357 19.2144C5.82593 19.1662 5.73923 19.1344 5.64883 19.121C5.55842 19.1076 5.46622 19.1129 5.37794 19.1365L1.94314 20.0569L2.86353 16.6221C2.88717 16.5338 2.89245 16.4416 2.87905 16.3512C2.86564 16.2608 2.83383 16.1741 2.78559 16.0965C0.40439 12.2662 0.972007 7.36055 4.16583 4.16668C7.93402 0.398578 14.0651 0.398578 17.8333 4.16668C21.6014 7.93478 21.6014 14.066 17.8333 17.8341Z" fill="#E3E3E3"/>
</g>
<defs>
<clipPath id="clip0_110_877">
<rect width="22" height="22" fill="white"/>
</clipPath>
</defs>
</svg>
