<svg width="70" height="70" viewBox="0 0 70 70" fill="none" xmlns="http://www.w3.org/2000/svg">
<path d="M35.0714 67.858L48.2448 64.0582C56.6684 57.4458 62.081 47.1721 62.081 35.6323C62.081 17.8973 49.2993 3.14961 32.4457 0.0932617C14.3083 1.4018 0 16.5293 0 35C0 44.7404 3.90592 53.4796 10.3272 59.8245L11.7713 61.1778L35.0714 67.858Z" fill="#CBE2FF"/>
<path d="M35 0C33.4928 0 32.0078 0.0954297 30.5508 0.280273C47.7799 2.46613 61.1015 17.1773 61.1015 35C61.1015 48.0717 53.9354 59.4691 43.3177 65.4794L58.228 61.1785C65.4485 54.7671 70 45.4158 70 35C70 15.67 54.33 0 35 0Z" fill="#BED8FB"/>
<path d="M45.7852 41.9709C46.93 41.2993 47.8793 40.34 48.5388 39.1881C49.1983 38.0363 49.545 36.7319 49.5445 35.4047L49.5407 23.3751C49.5407 15.3445 43.0307 8.83447 35.0001 8.83447C26.9696 8.83447 20.4596 15.3445 20.4596 23.3751L20.4557 35.4047C20.4553 36.732 20.802 38.0363 21.4614 39.1881C22.1209 40.34 23.0702 41.2993 24.2151 41.9709L25.8553 42.9328C28.6285 44.5592 31.7853 45.4166 35.0003 45.4166C38.2152 45.4166 41.372 44.5592 44.1453 42.9328L45.7852 41.9709Z" fill="#EFC984"/>
<path d="M49.5406 23.3753C49.5406 17.3471 45.8721 12.1759 40.6459 9.97168V44.51C41.8649 44.11 43.0378 43.5814 44.1448 42.9331L45.7851 41.9711C46.9299 41.2995 47.8792 40.3402 48.5387 39.1884C49.1981 38.0365 49.5449 36.7322 49.5444 35.4049L49.5406 23.3753Z" fill="#EABC6B"/>
<path d="M35 57.1625L44.2258 50.6703L40.5017 46.1596V35.8774H29.4983V46.1596L25.7742 50.6703L35 57.1625Z" fill="#FFDDCE"/>
<path d="M52.9885 48.5629L42.7999 46.6021C41.1913 49.2219 38.2997 50.9693 35 50.9693C31.7003 50.9693 28.8087 49.2219 27.2001 46.6021L17.0115 48.5629C13.1314 49.3096 10.3273 52.7049 10.3273 56.6561V59.8244C15.7838 65.2476 23.0185 68.8824 31.0796 69.7808C31.6842 69.8482 32.296 69.8112 32.89 69.6802L35.4815 69.1087C36.0965 68.9731 36.7348 68.9852 37.3442 69.1442C38.1898 69.3647 39.0843 69.3014 39.8904 68.964C47.8259 65.6438 54.3245 59.5754 58.1937 51.9454C56.9991 50.2319 55.1629 48.9814 52.9885 48.5629Z" fill="#4A80AA"/>
<path d="M59.6727 56.6562C59.6727 54.4253 58.7784 52.3719 57.3016 50.8721C52.156 60.9666 42.2577 68.2333 30.5542 69.7193C31.9902 69.9014 33.436 69.9951 34.8835 69.9998H34.8871C34.9326 70 35.0483 70.0001 35.1127 69.9998H35.1162C44.6965 69.9687 53.3704 66.0883 59.6725 59.8245V56.6562H59.6727Z" fill="#407093"/>
<path d="M35.7079 69.0588C37.0117 65.2844 39.7182 56.7472 40.362 49.2319C38.8553 50.3242 37.0032 50.9691 35 50.9691C32.9968 50.9691 31.1447 50.3242 29.638 49.2319C30.2988 56.9457 33.1331 65.7373 34.3927 69.3487L35.7079 69.0588Z" fill="#E28086"/>
<path d="M34.2847 69.0378C34.3951 69.3577 34.5071 69.677 34.6207 69.9957C35.3384 70.0033 35.0889 69.9987 35.3793 69.9957C35.5422 69.5388 35.7018 69.0808 35.858 68.6216C35.3369 68.7727 34.8123 68.9114 34.2847 69.0378Z" fill="#DD636E"/>
<path d="M44.7513 22.4022C40.8661 18.2176 40.1447 14.416 40.1447 14.416C38.2148 19.4801 33.3133 23.0778 27.5715 23.0778C27.3958 23.0778 27.221 23.0744 27.0469 23.0679C25.7257 23.0171 24.6284 24.0762 24.6284 25.3984V29.6462C24.7138 35.3027 29.323 39.8625 35 39.8625C40.6768 39.8625 45.286 35.3028 45.3716 29.6462V23.9854C45.3716 23.3986 45.1505 22.8321 44.7513 22.4022Z" fill="#FFDDCE"/>
<path d="M44.7513 22.4021C42.4173 19.8882 41.2259 17.5138 40.6459 16.0176V29.1777C40.5673 34.3736 36.671 38.6411 31.6373 39.3022C32.7195 39.6735 33.8558 39.8628 35 39.8624C40.6768 39.8624 45.286 35.3026 45.3716 29.6461V23.9853C45.3716 23.3985 45.1505 22.8321 44.7513 22.4021Z" fill="#FFCBBE"/>
<path d="M23.4991 46.9563C23.0562 47.2277 22.9682 47.8344 23.3157 48.2204L25.473 50.6167C25.5463 50.6981 25.6028 50.7932 25.6392 50.8965C25.6756 50.9999 25.6912 51.1094 25.6851 51.2188C25.679 51.3281 25.6513 51.4352 25.6037 51.5339C25.556 51.6325 25.4893 51.7208 25.4074 51.7935L23.985 53.0574C23.6863 53.3227 23.5386 53.7236 23.609 54.1168C24.4038 58.5569 31.5074 67.0371 34.0773 69.9885C34.2584 69.9928 34.4399 69.996 34.6217 69.9979C33.3785 66.5155 29.4982 54.943 29.4982 46.1596V43.2798L23.4991 46.9563ZM46.5009 46.9563L40.502 43.2799V46.1598C40.502 54.9431 36.6216 66.5157 35.3784 69.998C35.5603 69.9963 35.7417 69.9931 35.9229 69.9886C38.4928 67.0373 45.5964 58.557 46.3911 54.1169C46.4615 53.7236 46.3137 53.3229 46.0152 53.0575L44.5927 51.7937C44.5108 51.7209 44.4441 51.6327 44.3965 51.534C44.3488 51.4354 44.3211 51.3283 44.315 51.2189C44.3089 51.1095 44.3245 51 44.3609 50.8967C44.3973 50.7933 44.4538 50.6982 44.5271 50.6168L46.6844 48.2205C47.0318 47.8344 46.9438 47.2277 46.5009 46.9563Z" fill="#365E7D"/>
<path d="M46.944 24.0024H45.3715V29.1978H46.944C48.379 29.1978 49.5421 28.0343 49.5417 26.5993C49.5413 25.1651 48.3783 24.0024 46.944 24.0024Z" fill="#FFDDCE"/>
</svg>
